<svg xmlns="http://www.w3.org/2000/svg" width="15.816" height="16" viewBox="0 0 15.816 16">
    <defs>
        <style>
            .cls-1{fill:#222ba8}
        </style>
    </defs>
    <g id="calendar_3_" data-name="calendar (3)" transform="translate(-2.914)">
        <path id="Path_288" d="M2.914 15.448V2.023a.553.553 0 0 1 .552-.552H5.4a.552.552 0 0 1 0 1.1H4.017V14.9h13.61V2.575h-1.2a.552.552 0 1 1 0-1.1h1.747a.553.553 0 0 1 .552.552v13.421a.553.553 0 0 1-.552.552H3.466a.553.553 0 0 1-.552-.552zm9.2-13.425a.553.553 0 0 0-.552-.552H9.994a.552.552 0 1 0 0 1.1h1.563a.553.553 0 0 0 .552-.548zm-5.338 9.563h-.92a.553.553 0 0 0-.552.552v.92a.553.553 0 0 0 .552.552h.92a.553.553 0 0 0 .552-.552v-.92a.553.553 0 0 0-.552-.552zM8.8 13.609h1.011a.553.553 0 0 0 .552-.552v-.92a.553.553 0 0 0-.552-.552H8.8a.553.553 0 0 0-.552.552v.92a.553.553 0 0 0 .552.552zm3.034 0h.92a.553.553 0 0 0 .552-.552v-.92a.553.553 0 0 0-.552-.552h-.92a.553.553 0 0 0-.552.552v.92a.553.553 0 0 0 .552.552zM7.328 9.2a.553.553 0 0 0-.552-.552h-.92A.553.553 0 0 0 5.3 9.2v.92a.553.553 0 0 0 .552.552h.92a.553.553 0 0 0 .552-.552zm3.034 0a.553.553 0 0 0-.552-.552H8.8a.553.553 0 0 0-.552.552v.92a.553.553 0 0 0 .552.552h1.011a.553.553 0 0 0 .552-.552zm2.943 0a.553.553 0 0 0-.552-.552h-.92a.553.553 0 0 0-.552.552v.92a.553.553 0 0 0 .552.552h.92a.553.553 0 0 0 .552-.552zm1.563 1.471h.92a.553.553 0 0 0 .552-.552V9.2a.553.553 0 0 0-.552-.552h-.92a.553.553 0 0 0-.552.552v.92a.553.553 0 0 0 .552.547zm-4.506-4.418a.553.553 0 0 0-.551-.553H8.8a.553.553 0 0 0-.552.552v.92a.553.553 0 0 0 .552.552h1.011a.553.553 0 0 0 .552-.552zM7.88 3.678a.553.553 0 0 0 .552-.552V.552A.553.553 0 0 0 7.88 0h-.552a.553.553 0 0 0-.552.552v2.574a.553.553 0 0 0 .552.552zm6.345 0a.553.553 0 0 0 .552-.552V.552A.553.553 0 0 0 14.224 0h-.552a.553.553 0 0 0-.552.552v2.574a.553.553 0 0 0 .552.552zM13.3 6.253a.553.553 0 0 0-.552-.552h-.92a.553.553 0 0 0-.552.552v.92a.553.553 0 0 0 .552.552h.92a.553.553 0 0 0 .552-.552zm3.034 0a.553.553 0 0 0-.552-.552h-.92a.553.553 0 0 0-.552.552v.92a.553.553 0 0 0 .552.552h.92a.553.553 0 0 0 .552-.552z" class="cls-1" data-name="Path 288"/>
    </g>
</svg>
