<svg xmlns="http://www.w3.org/2000/svg" xmlns:xlink="http://www.w3.org/1999/xlink" width="200.317" height="150.169" viewBox="0 0 200.317 150.169">
    <defs>
        <style>
            .cls-1{fill:url(#linear-gradient)}.cls-2{fill:url(#linear-gradient-2)}.cls-3{fill:url(#linear-gradient-3)}.cls-4{fill:#fff}.cls-5{fill:url(#linear-gradient-4)}.cls-6{fill:url(#linear-gradient-5)}.cls-7{fill:url(#linear-gradient-6)}.cls-8{fill:#edeced}
        </style>
        <linearGradient id="linear-gradient" x1=".321" x2="1.171" y1=".73" y2="-.049" gradientUnits="objectBoundingBox">
            <stop offset="0" stop-color="#62e1fb"/>
            <stop offset="1" stop-color="#00a2f3"/>
        </linearGradient>
        <linearGradient id="linear-gradient-2" x1=".816" x2="-.329" y1=".507" y2=".507" gradientUnits="objectBoundingBox">
            <stop offset="0" stop-color="#00a2f3" stop-opacity="0"/>
            <stop offset="1" stop-color="#0075cd"/>
        </linearGradient>
        <linearGradient id="linear-gradient-3" x1=".305" x2=".832" y1=".745" y2=".262" gradientUnits="objectBoundingBox">
            <stop offset="0" stop-color="#a7f3ce"/>
            <stop offset="1" stop-color="#61db99"/>
        </linearGradient>
        <linearGradient id="linear-gradient-4" x1=".832" x2="-.466" y1=".508" y2=".508" gradientUnits="objectBoundingBox">
            <stop offset="0" stop-color="#61db99" stop-opacity="0"/>
            <stop offset="1" stop-color="#009e74"/>
        </linearGradient>
        <linearGradient id="linear-gradient-5" x1=".774" x2=".445" y1="-.028" y2=".325" xlink:href="#linear-gradient-4"/>
        <linearGradient id="linear-gradient-6" x1=".494" x2=".494" y1=".849" y2=".05" gradientUnits="objectBoundingBox">
            <stop offset="0" stop-color="#fff465"/>
            <stop offset="1" stop-color="#ffe600"/>
        </linearGradient>
    </defs>
    <g id="Group_171" data-name="Group 171" transform="translate(-539.781 -1569.226)">
        <g id="_002-protection" data-name="002-protection" transform="translate(565.489 1604.361)">
            <path id="Path_247" d="M126.867 27.776a5.171 5.171 0 0 0-4.52-5.047C98.792 19.684 82.438 6.411 76.579.94a3.5 3.5 0 0 0-4.77 0C65.951 6.411 49.6 19.684 26.042 22.729a5.171 5.171 0 0 0-4.52 5.047c-.233 16.85 2.675 74.758 52.673 87.258 49.998-12.5 52.905-70.408 52.672-87.258z" class="cls-1" data-name="Path 247"/>
            <path id="Path_248" d="M263.116 112.84q.525-.194 1.043-.4.669-.261 1.324-.533.431-.179.856-.364.67-.29 1.327-.592.247-.114.491-.229.6-.285 1.2-.581.86-.429 1.7-.879.8-.43 1.576-.878.891-.516 1.754-1.055l.04-.024q1.641-1.027 3.177-2.138l.232-.166q1.123-.817 2.19-1.676l.214-.17q.605-.49 1.192-.994a58.3 58.3 0 0 0 1.085-.946l.358-.326c.12-.109.25-.226.374-.341q.551-.51 1.084-1.032c.113-.11.226-.218.338-.329q.58-.574 1.14-1.16c.076-.079.153-.157.228-.237q.662-.7 1.3-1.41l.019-.02q.806-.9 1.57-1.832c.307-.372.611-.745.909-1.123q.882-1.117 1.711-2.264l.019-.026c.13-.18.257-.36.385-.54.056-.079.113-.157.168-.236.09-.128.177-.256.266-.384s.184-.265.275-.4q.444-.652.871-1.313.6-.929 1.175-1.871.7-1.16 1.361-2.339l.056-.1c.1-.175.193-.351.289-.526l.162-.295q.41-.758.8-1.522l.068-.132q.158-.31.312-.621l.107-.211c.057-.114.112-.229.168-.344q.53-1.08 1.027-2.169.876-1.924 1.649-3.868.242-.606.475-1.213.613-1.6 1.161-3.206c.023-.067.047-.133.069-.2.069-.2.137-.408.205-.613l.08-.239q.388-1.175.743-2.347l.063-.2q.187-.621.365-1.241.2-.692.389-1.381.283-1.033.542-2.059.155-.611.3-1.219l.128-.536.071-.3q.171-.732.331-1.458l.044-.2q.133-.607.257-1.209l.139-.676q.137-.678.266-1.35c0-.011 0-.021.006-.032q.119-.629.231-1.251l.2-1.152q.114-.667.218-1.325l.04-.251.034-.221.086-.557.2-1.345.028-.194.068-.5.036-.263.029-.223q.134-1.02.25-2.014c.169-1.448.308-2.851.424-4.2l.005-.061q.043-.507.081-1l.038-.5q.086-1.149.149-2.238c.016-.275.032-.549.046-.818q.044-.843.076-1.643l.018-.467c.031-.838.053-1.639.068-2.4V31.9q.024-1.275.024-2.391v-.045q0-.906-.011-1.7a5.172 5.172 0 0 0-4.521-5.048 78.983 78.983 0 0 1-1.952-.281l-.429-.067q-.944-.152-1.872-.324L299.62 22q-.843-.161-1.672-.338l-.357-.076q-.9-.2-1.79-.413l-.371-.092q-.82-.2-1.625-.421l-.21-.056q-.874-.24-1.729-.5l-.388-.117a82.452 82.452 0 0 1-1.7-.535l-.091-.031q-.808-.267-1.6-.547l-.359-.127q-.805-.288-1.593-.589l-.266-.1q-.712-.275-1.41-.559l-.276-.112q-.765-.315-1.511-.639l-.324-.142q-.7-.31-1.393-.626l-.126-.057q-.732-.339-1.443-.686l-.322-.157c-.47-.231-.935-.463-1.392-.7l-.135-.07q-.64-.33-1.262-.664L276 13.5q-.655-.355-1.291-.712l-.238-.135q-.574-.325-1.131-.652l-.2-.117q-.612-.362-1.2-.724l-.268-.16c-.387-.239-.77-.477-1.144-.716l-.039-.024a89.459 89.459 0 0 1-1.132-.736l-.249-.165c-.361-.24-.716-.479-1.063-.717l-.137-.1q-.476-.328-.933-.651l-.2-.143q-.492-.35-.962-.694l-.191-.141q-.427-.315-.838-.624l-.124-.093q-.447-.339-.871-.669l-.193-.151c-.283-.221-.561-.44-.828-.655l-.016-.013a81.794 81.794 0 0 1-.772-.628l-.168-.138c-.245-.2-.484-.4-.714-.6l-.108-.092q-.312-.265-.6-.518l-.122-.105q-.318-.276-.611-.538l-.124-.111c-.179-.16-.353-.317-.519-.468l-.06-.055-.512-.472-.059-.043A3.478 3.478 0 0 0 256 0v115.034q1.663-.416 3.257-.9 1.982-.598 3.859-1.294z" class="cls-2" data-name="Path 248" transform="translate(-181.805)"/>
            <path id="Path_249" d="M142.184 54.84a4.558 4.558 0 0 0-3.984-4.448c-20.762-2.684-35.176-14.382-40.34-19.2a3.081 3.081 0 0 0-4.2 0c-5.163 4.823-19.578 16.521-40.34 19.2a4.557 4.557 0 0 0-3.984 4.448c-.206 14.852 2.357 65.893 46.425 76.91 44.066-11.017 46.628-62.058 46.423-76.91z" class="cls-3" data-name="Path 249" transform="translate(-21.563 -23.538)"/>
            <path id="Path_250" d="M107.688 141.57l-.52-.13a49.5 49.5 0 0 1-23.764-13.4 59.127 59.127 0 0 1-12.73-20.467C65.257 93.427 64.618 79.024 64.72 71.7a6.181 6.181 0 0 1 5.37-6.006c17.6-2.275 29.842-12.178 34.287-16.33a4.865 4.865 0 0 1 6.621 0c4.445 4.152 16.685 14.055 34.287 16.33a6.181 6.181 0 0 1 5.371 6.006c.191 13.824-2.3 59.706-42.449 69.743zm0-89.23a.565.565 0 0 0-.387.152c-4.748 4.434-17.825 15.008-36.662 17.447A1.876 1.876 0 0 0 69 71.757c-.179 12.966 2.094 55.849 38.685 65.394 36.591-9.545 38.865-52.428 38.685-65.394a1.876 1.876 0 0 0-1.636-1.817c-18.834-2.44-31.911-13.014-36.659-17.448a.566.566 0 0 0-.387-.152z" class="cls-4" data-name="Path 250" transform="translate(-33.494 -37.263)"/>
            <path id="Path_251" d="M302.427 54.84a4.558 4.558 0 0 0-3.984-4.448c-20.762-2.684-35.176-14.382-40.34-19.2a3.071 3.071 0 0 0-2.1-.829V131.75c44.067-11.017 46.629-62.058 46.424-76.91z" class="cls-5" data-name="Path 251" transform="translate(-181.806 -23.538)"/>
            <path id="Path_252" d="M232.839 193.641c-3.706 14.981-10.971 31.28-25.043 42.5l-43.6-43.6a4.086 4.086 0 1 1 5.779-5.779l8.772 8.772a2.774 2.774 0 0 0 3.916 0l23.149-23.147a4.084 4.084 0 0 1 5.779 0z" class="cls-6" data-name="Path 252" transform="translate(-109.696 -132.727)"/>
            <path id="Path_253" d="M211.585 172.387a4.086 4.086 0 0 1 0 5.779l-23.149 23.146a10.953 10.953 0 0 1-15.474 0l-8.772-8.772a4.086 4.086 0 0 1 0-5.778 4.086 4.086 0 0 1 5.78 0l8.771 8.771a2.772 2.772 0 0 0 3.916 0l23.143-23.148a4.086 4.086 0 0 1 5.779 0z" class="cls-7" data-name="Path 253" transform="translate(-109.694 -132.727)"/>
        </g>
        <g id="paw-print" transform="rotate(-25 3958.046 -373.569)">
            <g id="Group_168" data-name="Group 168" transform="translate(0 26.184)">
                <path id="Union_2" d="M15.777 21.494a12.759 12.759 0 0 0-1.859-1.077 5.585 5.585 0 0 0-1.167-.088 4.371 4.371 0 0 0-.923.065 13.763 13.763 0 0 0-1.936 1.052 5.423 5.423 0 0 1-2.685 1.1 2.265 2.265 0 0 1-1.241-.373 3.66 3.66 0 0 1-1.58-3.036A6.656 6.656 0 0 1 5.5 15.294a3.168 3.168 0 0 1 .249-.327 1.47 1.47 0 0 0 .176-.238 7.445 7.445 0 0 1 6.927-3.918H13a7.572 7.572 0 0 1 6.927 4 1.969 1.969 0 0 0 .192.291 3.769 3.769 0 0 1 .256.379c1.507 2.653 1.132 5.722-.837 6.84a2.255 2.255 0 0 1-1.125.306 5.118 5.118 0 0 1-2.636-1.133zm4.4-9.989c0-2.216 1.31-3.951 2.983-3.951s2.98 1.735 2.98 3.946-1.311 3.95-2.984 3.95-2.983-1.731-2.983-3.95zM0 11.5c0-2.211 1.311-3.946 2.983-3.946S5.967 9.289 5.967 11.5s-1.31 3.95-2.983 3.95S0 13.719 0 11.5zm13.152-6.418c0-2.8 1.7-5.082 3.786-5.082s3.786 2.28 3.786 5.082-1.7 5.081-3.786 5.081-3.786-2.279-3.786-5.081zm-8.05 0C5.1 2.28 6.8 0 8.887 0s3.786 2.28 3.786 5.082-1.7 5.081-3.786 5.081S5.1 7.884 5.1 5.082z" class="cls-8" data-name="Union 2"/>
            </g>
        </g>
        <g id="paw-print-2" data-name="paw-print" transform="rotate(123.99 -72.511 1055.309)">
            <g id="Group_168-2" data-name="Group 168" transform="translate(0 26.184)">
                <path id="Union_2-2" d="M15.777 21.494a12.759 12.759 0 0 0-1.859-1.077 5.585 5.585 0 0 0-1.167-.088 4.371 4.371 0 0 0-.923.065 13.763 13.763 0 0 0-1.936 1.052 5.423 5.423 0 0 1-2.685 1.1 2.265 2.265 0 0 1-1.241-.373 3.66 3.66 0 0 1-1.58-3.036A6.656 6.656 0 0 1 5.5 15.294a3.168 3.168 0 0 1 .249-.327 1.47 1.47 0 0 0 .176-.238 7.445 7.445 0 0 1 6.927-3.918H13a7.572 7.572 0 0 1 6.927 4 1.969 1.969 0 0 0 .192.291 3.769 3.769 0 0 1 .256.379c1.507 2.653 1.132 5.722-.837 6.84a2.255 2.255 0 0 1-1.125.306 5.118 5.118 0 0 1-2.636-1.133zm4.4-9.989c0-2.216 1.31-3.951 2.983-3.951s2.98 1.735 2.98 3.946-1.311 3.95-2.984 3.95-2.983-1.731-2.983-3.95zM0 11.5c0-2.211 1.311-3.946 2.983-3.946S5.967 9.289 5.967 11.5s-1.31 3.95-2.983 3.95S0 13.719 0 11.5zm13.152-6.418c0-2.8 1.7-5.082 3.786-5.082s3.786 2.28 3.786 5.082-1.7 5.081-3.786 5.081-3.786-2.279-3.786-5.081zm-8.05 0C5.1 2.28 6.8 0 8.887 0s3.786 2.28 3.786 5.082-1.7 5.081-3.786 5.081S5.1 7.884 5.1 5.082z" class="cls-8" data-name="Union 2"/>
            </g>
        </g>
        <g id="dog-bone" transform="translate(669.123 1569.227)">
            <g id="Group_169" data-name="Group 169" transform="translate(.1 -.001)">
                <path id="Path_299" d="M19.867 3.423a3.287 3.287 0 1 0-6.242 1.3l-8.8 8.8a3.289 3.289 0 1 0-1.3 6.242 3.286 3.286 0 1 0 6.239-1.306l8.8-8.8a3.289 3.289 0 1 0 1.306-6.242z" class="cls-8" data-name="Path 299" transform="translate(-.1 .001)"/>
            </g>
        </g>
    </g>
</svg>
