<svg xmlns="http://www.w3.org/2000/svg" xmlns:xlink="http://www.w3.org/1999/xlink" width="200.317" height="150.169"><defs><linearGradient id="A" x1=".321" x2="1.171" y1=".73" y2="-.049"><stop offset="0" stop-color="#62e1fb"/><stop offset="1" stop-color="#00a2f3"/></linearGradient><linearGradient id="B" x1=".816" x2="-.329" y1=".507" y2=".507"><stop offset="0" stop-color="#00a2f3" stop-opacity="0"/><stop offset="1" stop-color="#0075cd"/></linearGradient><linearGradient id="C" x1=".305" x2=".832" y1=".745" y2=".262"><stop offset="0" stop-color="#a7f3ce"/><stop offset="1" stop-color="#61db99"/></linearGradient><linearGradient id="D" x1=".832" x2="-.466" y1=".508" y2=".508"><stop offset="0" stop-color="#61db99" stop-opacity="0"/><stop offset="1" stop-color="#009e74"/></linearGradient><linearGradient id="E" x1=".774" x2=".445" y1="-.028" y2=".325" xlink:href="#D"/><linearGradient id="F" x1=".494" x2=".494" y1=".849" y2=".05"><stop offset="0" stop-color="#fff465"/><stop offset="1" stop-color="#ffe600"/></linearGradient></defs><path d="M152.575 62.91a5.17 5.17 0 0 0-4.52-5.047c-23.555-3.045-39.91-16.318-45.768-21.79a3.5 3.5 0 0 0-4.77 0c-5.858 5.47-22.21 18.744-45.767 21.79a5.17 5.17 0 0 0-4.52 5.047c-.233 16.85 2.675 74.758 52.673 87.258 49.998-12.5 52.905-70.408 52.672-87.258z" fill="url(#A)"/><path d="M107.02 147.975q.525-.194 1.043-.4.67-.26 1.324-.533.43-.18.856-.364.67-.3 1.327-.592.247-.114.49-.23.6-.285 1.2-.58.86-.43 1.7-.88.8-.43 1.576-.878.89-.516 1.754-1.055l.04-.024q1.64-1.027 3.177-2.138l.232-.166q1.123-.817 2.2-1.676l.214-.17q.605-.5 1.192-.994l1.085-.946.732-.667q.55-.5 1.084-1.032l.338-.33q.58-.574 1.14-1.16l.228-.237q.662-.7 1.3-1.4l.02-.02q.806-.9 1.57-1.832l.91-1.123q.882-1.117 1.71-2.264l.02-.026.385-.54.168-.236.266-.384.275-.4q.444-.652.87-1.313.6-.93 1.175-1.87.7-1.16 1.36-2.34l.056-.1.45-.82q.4-.758.8-1.522l.068-.132q.158-.3.312-.62l.107-.21.168-.344q.53-1.08 1.027-2.17.876-1.924 1.65-3.868.242-.606.475-1.213.613-1.6 1.16-3.206l.07-.2.285-.852q.388-1.175.743-2.347l.063-.2q.187-.62.365-1.24.2-.692.39-1.38.283-1.033.542-2.06.155-.61.3-1.22l.128-.536.07-.3q.17-.732.33-1.458l.044-.2q.133-.607.257-1.21l.14-.676q.137-.678.266-1.35c0-.01 0-.02.006-.032q.12-.63.23-1.25l.2-1.152q.114-.667.218-1.325l.04-.25.12-.778.2-1.345.028-.194.068-.5.036-.263.03-.223q.134-1.02.25-2.014l.43-4.26q.043-.507.08-1l.038-.5q.086-1.15.15-2.238l.046-.818q.044-.843.076-1.643l.018-.467.068-2.4v-.042q.024-1.275.024-2.39V64.6q0-.906-.01-1.7c-.04-2.573-1.968-4.724-4.52-5.048l-1.952-.28-.43-.067q-.944-.152-1.872-.324l-.284-.044q-.843-.16-1.672-.338l-.357-.076q-.9-.2-1.8-.413l-.37-.092q-.82-.2-1.625-.42l-.2-.056q-.874-.24-1.73-.5l-.388-.117-1.7-.535-.09-.03q-.808-.267-1.6-.547l-.36-.127q-.805-.288-1.593-.59l-.266-.1q-.712-.275-1.4-.56l-.276-.112q-.765-.315-1.51-.64l-.324-.142q-.7-.3-1.393-.626l-.126-.057q-.732-.34-1.443-.686l-.322-.157-1.392-.7-.135-.07q-.64-.33-1.262-.664l-.275-.146q-.655-.355-1.29-.712l-.238-.135q-.574-.325-1.13-.652l-.2-.117q-.612-.362-1.2-.724l-.268-.16-1.144-.716-.04-.024-1.132-.736-.25-.165-1.063-.717-.137-.1q-.476-.328-.933-.65l-.2-.143q-.492-.35-.962-.694l-.19-.14q-.427-.315-.838-.624l-.124-.093q-.447-.34-.87-.67l-.193-.15-.844-.668-.772-.628-.168-.138-.714-.6-.108-.092q-.312-.265-.6-.518l-.122-.105q-.318-.276-.61-.538l-.124-.11-.52-.468-.06-.055-.512-.472-.06-.043a3.48 3.48 0 0 0-2.383-.94V150.17q1.663-.416 3.257-.9 1.982-.598 3.86-1.294z" fill="url(#B)"/><path d="M146.33 66.437a4.56 4.56 0 0 0-3.984-4.448c-20.762-2.684-35.176-14.382-40.34-19.2a3.08 3.08 0 0 0-4.2 0c-5.163 4.823-19.578 16.52-40.34 19.2a4.56 4.56 0 0 0-3.984 4.448c-.206 14.852 2.357 65.893 46.425 76.9 44.066-11.017 46.628-62.058 46.423-76.9z" fill="url(#C)"/><path d="M99.902 139.442l-.52-.13a49.5 49.5 0 0 1-23.764-13.4c-5.604-5.876-9.937-12.843-12.73-20.467-5.417-14.146-6.056-28.55-5.954-35.873a6.18 6.18 0 0 1 5.37-6.006c17.6-2.275 29.842-12.178 34.287-16.33 1.867-1.733 4.754-1.733 6.62 0 4.445 4.152 16.685 14.055 34.287 16.33a6.18 6.18 0 0 1 5.371 6.006c.19 13.824-2.3 59.706-42.45 69.743zm0-89.23c-.144 0-.282.054-.387.152C94.767 54.798 81.7 65.372 62.853 67.81c-.92.117-1.618.9-1.64 1.818-.18 12.966 2.094 55.85 38.685 65.394 36.59-9.545 38.865-52.428 38.685-65.394-.022-.927-.717-1.7-1.636-1.817-18.834-2.44-31.91-13.014-36.66-17.448-.105-.098-.243-.152-.387-.152z" fill="#fff"/><path d="M146.33 66.437a4.56 4.56 0 0 0-3.984-4.448c-20.762-2.684-35.176-14.382-40.34-19.2a3.07 3.07 0 0 0-2.1-.829v101.387c44.067-11.017 46.63-62.058 46.424-76.9z" fill="url(#D)"/><path d="M148.85 96.05c-3.706 14.98-10.97 31.28-25.043 42.5l-43.6-43.6c-1.596-1.596-1.596-4.183 0-5.78s4.183-1.596 5.78 0l8.772 8.772c1.083 1.08 2.833 1.08 3.916 0l23.15-23.147c.766-.767 1.806-1.198 2.89-1.198s2.123.43 2.89 1.198z" fill="url(#E)"/><path d="M127.6 74.795c.766.766 1.197 1.806 1.197 2.89s-.43 2.123-1.197 2.89l-23.15 23.146c-4.276 4.267-11.198 4.267-15.474 0l-8.772-8.772c-1.595-1.596-1.595-4.182 0-5.778.766-.767 1.806-1.198 2.9-1.198s2.124.43 2.9 1.198l8.77 8.77c1.082 1.08 2.834 1.08 3.916 0l23.143-23.148c.766-.766 1.806-1.197 2.89-1.197s2.123.43 2.89 1.197z" fill="url(#F)"/><path d="M23.383 105.06a12.76 12.76 0 0 0-2.14-.19 5.72 5.72 0 0 0-1.095.413 4.37 4.37 0 0 0-.809.449 12.96 12.96 0 0 0-1.3 1.772 5.41 5.41 0 0 1-1.97 2.132 2.26 2.26 0 0 1-1.282.186 3.66 3.66 0 0 1-2.715-2.084c-.605-1.224-.82-2.604-.614-3.954a3.17 3.17 0 0 1 .087-.402 1.47 1.47 0 0 0 .059-.29c.16-2.87 1.96-5.393 4.622-6.478l.134-.063a7.57 7.57 0 0 1 7.968.698 1.97 1.97 0 0 0 .297.183 3.77 3.77 0 0 1 .392.235c2.487 1.768 3.444 4.707 2.132 6.553-.226.325-.533.584-.9.753a5.12 5.12 0 0 1-2.868.087zm-.234-10.913c-.937-2.008-.483-4.134 1.034-4.84s3.434.313 4.368 2.317.48 4.134-1.035 4.84-3.435-.308-4.373-2.32zM4.86 102.67c-.934-2.004-.48-4.13 1.036-4.837s3.438.3 4.372 2.315.482 4.134-1.034 4.84-3.436-.308-4.374-2.32zm9.207-11.375c-1.183-2.538-.607-5.324 1.284-6.206s4.395.466 5.58 3.006.607 5.323-1.284 6.205-4.394-.465-5.58-3.005zM6.77 94.697c-1.186-2.54-.6-5.323 1.283-6.205s4.395.466 5.58 3.006.607 5.323-1.284 6.205-4.395-.465-5.58-3.004zM173.813 122.6a12.76 12.76 0 0 0 1.932-.939 5.63 5.63 0 0 0 .725-.918 4.37 4.37 0 0 0 .462-.802c.13-.724.2-1.458.2-2.193a5.41 5.41 0 0 1 .59-2.84c.247-.365.596-.65 1.003-.82a3.66 3.66 0 0 1 3.401.387 6.66 6.66 0 0 1 2.564 3.072 3.17 3.17 0 0 1 .132.389 1.47 1.47 0 0 0 .099.279 7.44 7.44 0 0 1-.624 7.934l-.083.123a7.57 7.57 0 0 1-7.189 3.507 1.97 1.97 0 0 0-.349-.003 3.77 3.77 0 0 1-.457 0c-3.042-.234-5.377-2.26-5.203-4.518.026-.394.156-.775.375-1.104a5.12 5.12 0 0 1 2.413-1.552zm5.822 9.233c1.837 1.24 2.544 3.295 1.608 4.682s-3.105 1.5-4.938.265-2.542-3.295-1.607-4.682 3.103-1.506 4.943-.265zm11.284-16.727c1.833 1.236 2.54 3.293 1.604 4.68s-3.107 1.504-4.94.268-2.543-3.294-1.607-4.682 3.103-1.506 4.943-.266zm-2.03 14.493c2.322 1.565 3.263 4.25 2.097 5.98s-4.007 1.864-6.33.298-3.262-4.25-2.096-5.98 4.006-1.865 6.33-.3zm4.5-6.675c2.324 1.565 3.264 4.25 2.098 5.98s-4.007 1.864-6.33.298-3.262-4.25-2.096-5.98 4.007-1.866 6.33-.3zM149.2 3.424c.056-1.368-.742-2.628-2.003-3.16a3.29 3.29 0 0 0-3.664.763c-.944.993-1.172 2.466-.575 3.698l-8.8 8.8a3.29 3.29 0 1 0-1.3 6.242c-.054 1.368.745 2.626 2.006 3.158s2.72.227 3.662-.766a3.28 3.28 0 0 0 .57-3.697l8.8-8.8a3.29 3.29 0 1 0 1.306-6.242z" fill="#edeced"/></svg>