<svg xmlns="http://www.w3.org/2000/svg" width="16" height="13.091" viewBox="0 0 16 13.091">
    <defs>
        <style>
            .cls-1{fill:#222ba8}
        </style>
    </defs>
    <g id="_001-closed-envelope-email" data-name="001-closed-envelope-email" transform="translate(0 -39.667)">
        <g id="Group_140" data-name="Group 140" transform="translate(0 39.667)">
            <path id="Path_289" d="M16 40.29a.625.625 0 0 0-.623-.623H.623A.625.625 0 0 0 0 40.29v11.845a.625.625 0 0 0 .623.623h14.754a.625.625 0 0 0 .623-.623zM1.247 51.511v-7.387l6.265 5.392a.565.565 0 0 0 .395.145.727.727 0 0 0 .426-.145l6.421-5.371v7.366zm13.506-10.6v1.61c-.1.01-.052.021-.062.021l-6.774 5.686-6.649-5.714c-.01-.01-.021-.021-.021-.031v-1.569z" class="cls-1" data-name="Path 289" transform="translate(0 -39.667)"/>
        </g>
    </g>
</svg>
