<svg xmlns="http://www.w3.org/2000/svg" id="_001-facebook-logo" width="16" height="16" data-name="001-facebook-logo" viewBox="0 0 16 16">
    <defs>
        <style>
            .cls-1{fill:#395599}
        </style>
    </defs>
    <g id="post-facebook">
        <path id="Path_3" d="M14.4 0H1.6A1.6 1.6 0 0 0 0 1.6v12.8A1.6 1.6 0 0 0 1.6 16h12.8a1.6 1.6 0 0 0 1.6-1.6V1.6A1.6 1.6 0 0 0 14.4 0zm-.8 1.6V4H12a.756.756 0 0 0-.8.8v1.6h2.4v2.4h-2.4v5.6H8.8V8.8H7.2V6.4h1.6v-2a2.835 2.835 0 0 1 2.8-2.8z" class="cls-1" data-name="Path 3"/>
    </g>
</svg>
