<svg xmlns="http://www.w3.org/2000/svg" id="_003-linkedin-logo" width="16" height="16" data-name="003-linkedin-logo" viewBox="0 0 16 16">
    <defs>
        <style>
            .cls-1{fill:#2464ae}
        </style>
    </defs>
    <g id="post-linkedin">
        <path id="Path_5" d="M14.4 0H1.6A1.6 1.6 0 0 0 0 1.6v12.8A1.6 1.6 0 0 0 1.6 16h12.8a1.6 1.6 0 0 0 1.6-1.6V1.6A1.6 1.6 0 0 0 14.4 0zM4.8 13.6H2.4V6.4h2.4zM3.6 5.04A1.44 1.44 0 1 1 5.04 3.6 1.434 1.434 0 0 1 3.6 5.04zm10 8.56h-2.4V9.36a1.2 1.2 0 1 0-2.4 0v4.24H6.4V6.4h2.4v.96a2.584 2.584 0 0 1 2-1.12 2.835 2.835 0 0 1 2.8 2.8z" class="cls-1" data-name="Path 5"/>
    </g>
</svg>
