<svg xmlns="http://www.w3.org/2000/svg" width="14.216" height="16.002" viewBox="0 0 14.216 16.002">
    <defs>
        <style>
            .cls-1{fill:#222ba8}
        </style>
    </defs>
    <g id="_002-pirate-treasure-map" data-name="002-pirate-treasure-map" transform="translate(-26.648 .002)">
        <g id="Group_141" data-name="Group 141" transform="translate(26.648 -.001)">
            <path id="Union_1" d="M8.833 15.857l-4.349-3.8-3.592 2.456a.578.578 0 0 1-.589.036.559.559 0 0 1-.3-.5V3.48a.575.575 0 0 1 .247-.475L4.5.1a.581.581 0 0 1 .691.036l4.076 3.45L13.335.968a.593.593 0 0 1 .589-.029.581.581 0 0 1 .293.5v11.33a.565.565 0 0 1-.274.482L9.5 15.913a.541.541 0 0 1-.3.087.556.556 0 0 1-.367-.143zm-3.715-6.89v2.142l4.151 3.63 3.812-2.282V2.482L9.763 4.627v7.09a.569.569 0 0 1-1.139 0V4.522L4.786 1.29 1.137 3.781v9.2l2.845-1.943V8.967a.568.568 0 0 1 1.136 0zM2.986 7.29a.577.577 0 0 1 0-.8l.967-.977-.967-.967a.57.57 0 0 1 .8-.807l.967.967.967-.967a.578.578 0 0 1 .807 0 .561.561 0 0 1 0 .807l-.967.967.957.967a.577.577 0 0 1 0 .8.55.55 0 0 1-.4.172.568.568 0 0 1-.4-.172l-.967-.967-.974.977a.551.551 0 0 1-.4.172.566.566 0 0 1-.39-.172z" class="cls-1" data-name="Union 1"/>
        </g>
    </g>
</svg>
