<svg xmlns="http://www.w3.org/2000/svg" width="14.216" height="16.002"><path d="M8.833 15.858l-4.35-3.8-3.592 2.456a.58.58 0 0 1-.589.036.56.56 0 0 1-.3-.5V3.48c-.001-.19.09-.367.247-.475L4.5.1a.58.58 0 0 1 .691.036l4.076 3.45L13.335.97c.177-.114.4-.125.59-.03a.58.58 0 0 1 .293.5v11.33c-.001.198-.105.38-.274.482L9.5 15.914a.54.54 0 0 1-.3.087c-.136-.001-.266-.052-.367-.143zm-3.715-6.9V11.1l4.15 3.63 3.812-2.282V2.483L9.763 4.628v7.1a.57.57 0 0 1-.569.569.57.57 0 0 1-.569-.569V4.523L4.786 1.29l-3.65 2.49v9.2l2.845-1.943v-2.07A.57.57 0 0 1 4.55 8.4a.57.57 0 0 1 .568.568zM2.986 7.29c-.215-.223-.215-.577 0-.8l.967-.977-.967-.967a.57.57 0 0 1 .8-.807l.967.967.967-.967a.58.58 0 0 1 .807 0 .56.56 0 0 1 0 .807l-.967.967.957.967c.215.223.215.577 0 .8a.55.55 0 0 1-.4.172.57.57 0 0 1-.4-.172l-.967-.967-.974.977a.55.55 0 0 1-.4.172c-.147-.004-.287-.066-.4-.172z" fill="#222ba8"/></svg>