<svg xmlns="http://www.w3.org/2000/svg" width="80.395" height="80.398" viewBox="0 0 80.395 80.398">
    <defs>
        <style>
            .cls-1{fill:#f7d82f}
        </style>
    </defs>
    <g id="cotton-bud" transform="translate(-.001)">
        <path id="Path_214" d="M118.862 308.106l-9.4 8.755-5.062-5.061 8.755-9.4zm0 0" class="cls-1" data-name="Path 214" transform="translate(-87.476 -253.384)"/>
        <path id="Path_215" d="M66.609 77.3L54.55 90.7l-3.526-3.525 13.4-12.057-1.736-1.927-22.6 20.343c-1.362 1.224-2.722 2.513-4.04 3.833s-2.609 2.678-3.817 4.025L1.1 134.848a4.088 4.088 0 0 0 5.775 5.779l33.445-31.11a105.662 105.662 0 0 0 7.872-7.873l20.345-22.6zm-13.8 15.327L50.865 94.8l-3.936-3.94 2.164-1.948zm-17.845 9.609q.981-1.066 2-2.111l4.626 4.626q-1.045 1.017-2.111 2zM38.8 98.3q1.047-1.021 2.111-2l4.516 4.515q-.981 1.067-2 2.112zm-5.6 5.85l4.377 4.376-2.126 1.974-4.228-4.228zm.345 8.125l-2.131 1.982-3.947-3.947 1.982-2.131zM5.107 138.729a1.48 1.48 0 0 1-1.018.4 1.5 1.5 0 0 1-1.495-1.495 1.483 1.483 0 0 1 .4-1.019l22.71-24.409 3.815 3.815zM47.179 98.89l-4.346-4.345L45 92.6l4.128 4.128zm0 0" data-name="Path 215" transform="translate(0 -61.325)"/>
        <path id="Path_216" d="M389.153 18.159a5.116 5.116 0 0 1-3.717-1.406c-2.678-2.678-1.406-8.148 2.9-12.452 2.7-2.694 5.96-4.3 8.737-4.3a5.115 5.115 0 0 1 3.715 1.406c2.677 2.678 1.406 8.148-2.9 12.452-2.7 2.694-5.96 4.3-8.736 4.3zm0 0" class="cls-1" data-name="Path 216" transform="translate(-321.788)"/>
    </g>
</svg>
