<svg xmlns="http://www.w3.org/2000/svg" width="80.287" height="80.287"><path d="M12.947 38.798h-7.77l.106-1.392c1.407-17.124 15-30.715 32.123-32.12L38.8 5.18v7.76l-1.177.106c-13.057 1.17-23.406 11.518-24.575 24.575zM38.8 75.107L37.407 75C20.283 73.595 6.692 60.004 5.285 42.88l-.107-1.392h7.77l.106 1.177a27.1 27.1 0 0 0 24.57 24.57l1.177.106zm2.688.003v-7.767l1.177-.106a27.1 27.1 0 0 0 24.57-24.57l.106-1.177h7.765L75 42.88c-1.406 17.124-14.997 30.715-32.12 32.122zM75.1 38.798h-7.767l-.106-1.177a27.1 27.1 0 0 0-24.57-24.57l-1.178-.1V5.18l1.392.106c17.124 1.406 30.715 14.997 32.122 32.12zm0 0" fill="#f7d82f"/><path d="M44.024 0h-7.76v16.813h7.76zm-2.587 14.226H38.85V2.587h2.587zM0 44.024h16.813v-7.76H0zm2.587-5.173h11.64v2.587H2.587zm33.677 41.436h7.76V63.474h-7.76zM38.85 66.06h2.587V77.7H38.85zm24.624-29.796v7.76h16.813v-7.76zM77.7 41.437H66.06V38.85H77.7zm0 0"/><path d="M53.076 36.255h-3.88v-2.593H46.6v-1.3a6.48 6.48 0 0 0-4.163-6.039 13.76 13.76 0 0 1 7.063-4.373l-.626-2.516a16.35 16.35 0 0 0-8.74 5.62 16.34 16.34 0 0 0-8.74-5.621l-.626 2.516a13.76 13.76 0 0 1 7.063 4.373 6.48 6.48 0 0 0-4.163 6.039v1.3H31.1v2.593h-3.9v-3.9h-2.586v6.483H31.1v2.593h-6.466v2.593h6.483a18.9 18.9 0 0 0 .226 2.593h-6.7V53.1h2.587v-3.9h4.72a18.7 18.7 0 0 0 7.494 10.155l.718.48.718-.48A18.7 18.7 0 0 0 48.365 49.2h4.72v3.9h2.587v-6.483h-6.7a18.92 18.92 0 0 0 .226-2.593h6.485V41.44h-6.466v-2.593h6.466v-6.483h-2.587zm-16.813-3.9a3.88 3.88 0 1 1 7.76 0v1.3h-7.76zm3.88 5.946l-2.05-2.056h4.1zm-6.466 5.45v-7.506h.758l4.415 4.427v14.936a16.15 16.15 0 0 1-5.173-11.857zm12.933 0a16.15 16.15 0 0 1-5.173 11.856V40.68l4.415-4.427h.758zm6.485-16.556h2.587v2.587h-2.587zm-28.5 0h2.587v2.587h-2.587zm-5.18 14.245h2.587v2.587h-2.587zm0 0"/><path d="M24.605 55.685h2.587v2.587h-2.587zm33.67-14.245h2.587v2.587h-2.587zm-5.18 14.245h2.587v2.587h-2.587zm0 0"/></svg>