<svg xmlns="http://www.w3.org/2000/svg" width="80.138" height="80.137" viewBox="0 0 80.138 80.137">
    <defs>
        <style>
            .cls-1{fill:#f7d82f}
        </style>
    </defs>
    <g id="_020-dental" data-name="020-dental">
        <path id="Path_193" d="M12.211 202.41a12.216 12.216 0 0 1-8.642-20.844l1.8-1.8a10.616 10.616 0 0 1 15.012 0l4.287 4.287L47.2 170.641l1.317 2.213-24.252 14.433-5.7-5.7a8.04 8.04 0 0 0-11.369 0l-1.8 1.8a9.634 9.634 0 0 0 12.073 14.884L37.8 184.992l1.409 2.156-20.336 13.28a12.148 12.148 0 0 1-6.662 1.983zm0 0" data-name="Path 193" transform="translate(0 -143.004)"/>
        <path id="Path_194" d="M326.112 76.419l-1.412-2.157 15.469-10.1a31.644 31.644 0 0 0 9.477-9.668l-16.284 9.693-1.316-2.214 20.229-12.04v5.2l-.187.308a34.23 34.23 0 0 1-10.508 10.875zm0 0" data-name="Path 194" transform="translate(-272.14 -41.892)"/>
        <path id="Path_195" d="M162.361 55.375L195.2 0H190l-.308.187a34.285 34.285 0 0 0-10.879 10.55l-32.829 50.458a12.257 12.257 0 0 0 10.2 18.942h.044a12.082 12.082 0 0 0 8.615-3.582l1.8-1.809a10.681 10.681 0 0 0 0-15.067zm-5.482 18.3a6.463 6.463 0 1 1 6.439-6.463 6.45 6.45 0 0 1-6.439 6.462zm0 0" class="cls-1" data-name="Path 195" transform="translate(-120.526)"/>
        <path id="Path_196" d="M39.727 255.453a7.727 7.727 0 1 1 7.727-7.727 7.734 7.734 0 0 1-7.727 7.727zm0-12.878a5.151 5.151 0 1 0 5.151 5.151 5.156 5.156 0 0 0-5.151-5.15zm0 0" data-name="Path 196" transform="translate(-26.849 -201.19)"/>
        <path id="Path_197" d="M183.727 383.453a7.727 7.727 0 1 1 7.727-7.727 7.734 7.734 0 0 1-7.727 7.727zm0-12.878a5.151 5.151 0 1 0 5.151 5.151 5.156 5.156 0 0 0-5.151-5.15zm0 0" data-name="Path 197" transform="translate(-147.539 -308.468)"/>
    </g>
</svg>
