<svg xmlns="http://www.w3.org/2000/svg" xmlns:xlink="http://www.w3.org/1999/xlink" width="80.13" height="59.509"><path d="M1.45 34.91a17.87 17.87 0 0 1 3.8-19.7l.68-.68c.933-.93 2.335-1.2 3.553-.707s2.016 1.69 2.02 3.007v.14a3.27 3.27 0 0 1-.716 2.036l-1.166 1.456C7.26 23.4 6.666 27.4 8.07 30.906L9.12 33.52c.1-.036.177-.077.268-.11A49.34 49.34 0 0 0 28.953 22.8l.518-.46a6.22 6.22 0 0 1-.179-1.459V17.7a4.63 4.63 0 0 1-4.185-4.588c.002-3.302.866-6.546 2.506-9.412 1.14-1.986 3.14-3.33 5.41-3.633S37.577.534 39.2 2.15l.553.552a14.53 14.53 0 0 1 8.363 0l.553-.552C50.292.53 52.576-.24 54.848.063S59.123 1.71 60.263 3.7c1.64 2.867 2.504 6.112 2.506 9.415a4.63 4.63 0 0 1-4.185 4.585v3.18a6.28 6.28 0 0 1-6.277 6.264v-2.088c2.308.001 4.18-1.868 4.185-4.176V16.7c0-6.933-5.62-12.554-12.554-12.554S31.384 9.767 31.384 16.7v4.18c.004 2.308 1.877 4.177 4.185 4.176v2.088c-2.096 0-4.054-1.046-5.22-2.79l-.007.005a51.31 51.31 0 0 1-20.314 11.034c-4.757 1.76-7.92 6.288-7.937 11.36-.008 3.214 1.27 6.297 3.553 8.56a7.17 7.17 0 0 0 5.1 2.107h17.5a2.09 2.09 0 0 0 2.088-2.088 2.09 2.09 0 0 0-2.088-2.088h-10.46v-2.088h5.23v-2.014a16.65 16.65 0 0 0-4.924-11.864l1.48-1.48a18.7 18.7 0 0 1 5.4 11.178h3.67a23.87 23.87 0 0 0 5.881-.749v-5.512h2.092v15.66c.002.577.47 1.043 1.046 1.044h6.92c.694.001 1.29-.49 1.422-1.172s-.24-1.36-.886-1.616L40.8 52.907v-1.182a15.6 15.6 0 0 1 1-5.509c1.415-3.76 2.14-7.745 2.137-11.763h2.093a35.37 35.37 0 0 1-.405 5.3 14.48 14.48 0 0 0 3.544-9.48h2.092a16.6 16.6 0 0 1-1.092 5.879 35.45 35.45 0 0 1-2.224 10.793 13.52 13.52 0 0 0-.866 4.546l3 1.2c1.577.627 2.485 2.286 2.164 3.952s-1.782 2.868-3.48 2.864H37.66a3.14 3.14 0 0 1-3.138-3.132v-7.993c-1.928.452-3.9.682-5.88.686H25.1v2.088h3.138c2.306 0 4.176 1.87 4.176 4.176s-1.87 4.176-4.176 4.176h-17.5a9.25 9.25 0 0 1-6.576-2.719c-5.02-4.987-5.57-12.92-1.286-18.55zm57.08-19.29c1.234-.195 2.144-1.257 2.148-2.506-.001-2.94-.77-5.827-2.23-8.378-.8-1.403-2.203-2.36-3.802-2.594s-3.216.28-4.386 1.394a14.62 14.62 0 0 1 8.27 12.08zM37.617 3.54c-1.17-1.114-2.788-1.63-4.386-1.394s-3 1.19-3.802 2.594c-1.46 2.55-2.227 5.436-2.23 8.374.004 1.25.914 2.31 2.148 2.506a14.62 14.62 0 0 1 8.269-12.08zm9.9 37.23c-.674.835-1.427 1.604-2.25 2.295l-.37.3c-.313 1.214-.7 2.41-1.128 3.585a13.52 13.52 0 0 0-.866 4.546l2.09.835v-.6c-.002-1.882.337-3.748 1-5.51.66-1.77 1.17-3.6 1.522-5.445zm2.707 15.2a1.44 1.44 0 0 0-.911-1.343l-1.872-.748c.448.605.69 1.338.69 2.09-.001.5-.11.992-.318 1.446h.962a1.45 1.45 0 0 0 1.449-1.446zM7.228 34.417l-1.1-2.735a12.55 12.55 0 0 1 1.86-12.522l1.17-1.46c.166-.208.257-.466.257-.732v-.14c-.003-.473-.288-.898-.725-1.078s-.94-.082-1.275.25l-.68.68c-4.58 4.566-5.91 11.464-3.36 17.407l1.042 2.427c.848-.813 1.793-1.518 2.813-2.1zm0 0"/><use xlink:href="#B"/><use xlink:href="#B" x="12.558"/><path d="M39.838 31.257h8.3a5.19 5.19 0 0 0 5.185-5.184c0-5.154-4.178-9.333-9.332-9.333s-9.332 4.178-9.333 9.333a5.19 5.19 0 0 0 5.18 5.184zm0 0" fill="#f7d82f"/><path d="M42.917 23.56v-.8a3.11 3.11 0 1 1 2.074 0v.8l2.807 2.807-1.466 1.466-2.378-2.377-2.378 2.375-1.466-1.466zm1.037-4.755c-.42 0-.798.253-.958.64s-.072.834.225 1.13a1.04 1.04 0 0 0 1.77-.733 1.04 1.04 0 0 0-1.037-1.037zm34 28.05l-1.995-1a5.56 5.56 0 0 0-2.475-.584h-8.37a5.23 5.23 0 0 0-1.756 7.117 6.59 6.59 0 0 1-.617 4.745c.002 1.3 1.063 2.37 2.373 2.372h8.37a5.56 5.56 0 0 0 2.475-.585l1.995-1h2.186V46.855zm-8.916 6.98c.013.045.023.1.03.137a.79.79 0 0 1-.791.791h-3.164a.79.79 0 1 1 0-1.582H66.5a2.3 2.3 0 0 0 2.518.654zm-4.716-3.026a.79.79 0 0 1 .791-.791h.8V51.6h-.8a.79.79 0 0 1-.791-.791zm.8-3.954h.936a2.35 2.35 0 0 0-.145.791v.8h-.8a.79.79 0 1 1 0-1.582zm1.582 11.073h-1.582a.791.791 0 1 1 0-1.582h3.164a.791.791 0 1 1 0 1.582zm11.864-1.582h-.978L75.243 57.5a3.98 3.98 0 0 1-1.768.418h-2.98c-.725-1.234-.668-2.777.146-3.954a2.29 2.29 0 0 1 0-2.372v-1.584h1.267a6.14 6.14 0 0 0 4.134 1.582h.136v-1.582h-.136c-1.222.003-2.395-.483-3.257-1.35l-.232-.232h-3.5V51.6a.791.791 0 1 1-1.582 0v-3.954a.79.79 0 0 1 .791-.791h5.207a3.97 3.97 0 0 1 1.768.418l2.33 1.164h.978zm0 0"/><path d="M68.267 20.758h-1.582c-1.3.001-2.37 1.062-2.373 2.372v12.983l1.582 1.582v7.58h4.745V23.13c-.002-1.3-1.063-2.37-2.373-2.372zm0 0" fill="#f7d82f"/><defs ><path id="B" d="M36.626 12.524c0 .573.464 1.037 1.037 1.037s1.037-.464 1.037-1.037-.464-1.037-1.037-1.037c-.275 0-.54.11-.733.304s-.304.458-.304.733zm0 0"/></defs></svg>