<svg xmlns="http://www.w3.org/2000/svg" width="51.565" height="80.292"><path d="M11.773 0H6.6a3.89 3.89 0 0 0-3.886 3.887V47.94h2.6v-6.48h7.774v6.478h2.6V3.887A3.89 3.89 0 0 0 11.773 0zm-4.75 11.66l-1.728 1.3v-2.596zM6.16 7.774h6.045L9.18 10.04zm3.024 5.507l3.02 2.267-3.024 2.267-3.024-2.267zm-2.16 6.154l-1.728 1.3V18.14zm2.16 1.62l3.02 2.267L9.18 25.6l-3.024-2.267zm-2.16 6.154l-1.728 1.3v-2.596zm2.16 1.62l3.02 2.27-3.024 2.267L6.158 31.1zm-2.16 6.154l-1.728 1.3v-2.596zm2.16 1.62l3.02 2.267H6.158zm2.16-1.62l1.728-1.3v2.6zm0-7.774l1.728-1.3v2.6zm0-7.774l1.728-1.3v2.595zm0-7.774l1.728-1.3v2.6zm-4.75-9.07h5.183a1.3 1.3 0 0 1 1.3 1.3v1.3h-7.78v-1.3a1.3 1.3 0 0 1 1.296-1.3zM46.27 32.353v6.478h-7.774v-6.478h-2.6V68c.001 1.546.554 3.04 1.56 4.215l6 7a3.07 3.07 0 0 0 5.4-2V32.353zM40.225 45.3l-1.728 1.3V44zm-.865-3.887h6.045L42.38 43.7zm3.024 5.507l3.024 2.267-3.024 2.267-3.024-2.267zm-2.16 6.154l-1.728 1.3v-2.6zm2.16 1.62l3.024 2.267-3.024 2.267-3.024-2.267zm-2.16 6.15l-1.728 1.3v-2.6zm2.16 1.62l3.024 2.267H39.36zm2.16-1.62l1.728-1.3v2.6zm0-7.774l1.728-1.3v2.6zm0-7.774l1.728-1.3v2.6zm.885 32.224l-5.995-6.994a3.9 3.9 0 0 1-.935-2.529v-.675h7.774v9.886a.5.5 0 0 1-.845.317z"/><path d="M9.182 80.292a6.97 6.97 0 0 1-6.9-6.353L-.004 46.605h18.368l-2.28 27.334a6.97 6.97 0 0 1-6.903 6.353zm42.383-46.605H33.197l2.28-27.334A6.93 6.93 0 0 1 42.379.002a6.93 6.93 0 0 1 6.903 6.351z" fill="#f7d82f"/></svg>