<svg xmlns="http://www.w3.org/2000/svg" width="51.565" height="80.292" viewBox="0 0 51.565 80.292">
    <defs>
        <style>
            .cls-1{fill:#f7d82f}
        </style>
    </defs>
    <g id="_011-rasp" data-name="011-rasp" transform="translate(-63.304)">
        <path id="Path_111" d="M89.069 0h-5.182A3.892 3.892 0 0 0 80 3.887v44.052h2.591v-6.478h7.774v6.478h2.591V3.887A3.892 3.892 0 0 0 89.069 0zM84.32 11.661l-1.728 1.3v-2.596zm-.865-3.887H89.5l-3.024 2.267zm3.024 5.507l3.021 2.267-3.024 2.267-3.024-2.267zm-2.159 6.154l-1.728 1.3v-2.596zm2.159 1.62l3.021 2.267-3.024 2.267-3.024-2.267zm-2.159 6.154l-1.728 1.3v-2.596zm2.159 1.62L89.5 31.1l-3.024 2.267-3.022-2.267zm-2.159 6.154l-1.728 1.3v-2.596zm2.159 1.62L89.5 38.87h-6.046zm2.159-1.62l1.728-1.3v2.591zm0-7.774l1.728-1.3V28.5zm0-7.774l1.728-1.3v2.595zm0-7.774l1.728-1.3v2.591zm-4.75-9.07h5.183a1.3 1.3 0 0 1 1.3 1.3v1.3h-7.78v-1.3a1.3 1.3 0 0 1 1.296-1.3z" data-name="Path 111" transform="translate(-13.992)"/>
        <path id="Path_112" d="M346.365 200v6.478h-7.774V200H336v35.658a6.487 6.487 0 0 0 1.559 4.215l6 7a3.071 3.071 0 0 0 5.4-2V200zm-6.045 12.957l-1.728 1.3v-2.591zm-.865-3.887h6.045l-3.024 2.267zm3.024 5.507l3.024 2.267-3.024 2.267-3.024-2.267zm-2.159 6.154l-1.728 1.3v-2.591zm2.159 1.62l3.024 2.267-3.024 2.267-3.024-2.267zm-2.159 6.149l-1.728 1.3v-2.591zm2.159 1.62l3.024 2.267h-6.048zm2.159-1.62l1.728-1.3v2.6zm0-7.774l1.728-1.3v2.591zm0-7.774l1.728-1.3v2.591zm.885 32.224l-5.995-6.994a3.9 3.9 0 0 1-.935-2.529v-.675h7.774v9.886a.5.5 0 0 1-.845.317z" data-name="Path 112" transform="translate(-236.791 -167.647)"/>
        <g id="Group_80" data-name="Group 80" transform="translate(63.304)">
            <path id="Path_113" d="M72.486 321.687a6.967 6.967 0 0 1-6.9-6.353L63.3 288h18.368l-2.279 27.334a6.967 6.967 0 0 1-6.903 6.353z" class="cls-1" data-name="Path 113" transform="translate(-63.304 -241.395)"/>
            <path id="Path_114" d="M337.668 33.687H319.3l2.279-27.334a6.927 6.927 0 0 1 13.806 0z" class="cls-1" data-name="Path 114" transform="translate(-286.103)"/>
        </g>
    </g>
</svg>
