<svg xmlns="http://www.w3.org/2000/svg" width="80.13" height="59.509" viewBox="0 0 80.13 59.509">
    <defs>
        <style>
            .cls-1{fill:#f7d82f}
        </style>
    </defs>
    <g id="Group_158" data-name="Group 158" transform="translate(-7646 -916)">
        <g id="dog" transform="translate(7646 916)">
            <path id="Path_217" d="M9.45 34.911a17.867 17.867 0 0 1 3.8-19.7l.681-.68a3.267 3.267 0 0 1 5.574 2.3v.141a3.27 3.27 0 0 1-.716 2.036l-1.166 1.456a10.465 10.465 0 0 0-1.552 10.442l1.048 2.613c.09-.036.177-.077.268-.111A49.342 49.342 0 0 0 36.953 22.8l.518-.459a6.22 6.22 0 0 1-.179-1.459V17.7a4.629 4.629 0 0 1-4.185-4.588A18.976 18.976 0 0 1 35.613 3.7 7.366 7.366 0 0 1 47.2 2.151l.553.552a14.528 14.528 0 0 1 8.363 0l.553-.552A7.366 7.366 0 0 1 68.263 3.7a18.976 18.976 0 0 1 2.506 9.415 4.63 4.63 0 0 1-4.185 4.585v3.18a6.277 6.277 0 0 1-6.277 6.264v-2.088a4.184 4.184 0 0 0 4.185-4.176V16.7a12.554 12.554 0 0 0-25.108 0v4.18a4.184 4.184 0 0 0 4.185 4.176v2.088a6.277 6.277 0 0 1-5.219-2.789l-.007.005a51.31 51.31 0 0 1-20.314 11.034 12.153 12.153 0 0 0-7.937 11.36 12.014 12.014 0 0 0 3.553 8.56 7.169 7.169 0 0 0 5.1 2.107h17.5a2.088 2.088 0 1 0 0-4.176H25.784v-2.088h5.231v-2.014a16.651 16.651 0 0 0-4.924-11.864L27.57 35.8a18.7 18.7 0 0 1 5.4 11.178h3.67a23.87 23.87 0 0 0 5.881-.749v-5.512h2.092v15.66a1.047 1.047 0 0 0 1.046 1.044h6.921a1.445 1.445 0 0 0 .536-2.788L48.8 52.907v-1.182a15.6 15.6 0 0 1 1-5.509 33.345 33.345 0 0 0 2.137-11.763h2.093a35.368 35.368 0 0 1-.405 5.3 14.481 14.481 0 0 0 3.544-9.48h2.092a16.6 16.6 0 0 1-1.092 5.879 35.448 35.448 0 0 1-2.224 10.793 13.52 13.52 0 0 0-.866 4.546l3 1.2a3.533 3.533 0 0 1-1.315 6.816H45.661a3.139 3.139 0 0 1-3.138-3.132v-7.993a25.954 25.954 0 0 1-5.881.686H33.1V51.156h3.138a4.176 4.176 0 1 1 0 8.352h-17.5a9.248 9.248 0 0 1-6.576-2.719 14.111 14.111 0 0 1-1.286-18.551zM66.529 15.62a2.546 2.546 0 0 0 2.148-2.506 16.883 16.883 0 0 0-2.229-8.378 5.255 5.255 0 0 0-8.188-1.2 14.621 14.621 0 0 1 8.27 12.08zM45.617 3.54a5.255 5.255 0 0 0-8.188 1.2 16.883 16.883 0 0 0-2.229 8.374 2.546 2.546 0 0 0 2.148 2.506 14.621 14.621 0 0 1 8.269-12.08zm9.89 37.231a16.724 16.724 0 0 1-2.249 2.295l-.371.3a35.837 35.837 0 0 1-1.128 3.585 13.52 13.52 0 0 0-.866 4.546l2.091.835v-.6a15.605 15.605 0 0 1 1-5.509 33.387 33.387 0 0 0 1.522-5.445zm2.707 15.2a1.44 1.44 0 0 0-.911-1.343l-1.872-.748a3.515 3.515 0 0 1 .691 2.091 3.477 3.477 0 0 1-.318 1.446h.962a1.45 1.45 0 0 0 1.449-1.446zM15.228 34.417l-1.1-2.735a12.55 12.55 0 0 1 1.86-12.522l1.17-1.46a1.175 1.175 0 0 0 .257-.732v-.141a1.174 1.174 0 0 0-2-.828l-.681.68a15.786 15.786 0 0 0-3.359 17.407l1.042 2.427a14.336 14.336 0 0 1 2.813-2.1zm0 0" data-name="Path 217" transform="translate(-8)"/>
            <path id="Path_218" d="M192 89.037A1.037 1.037 0 1 0 193.037 88 1.037 1.037 0 0 0 192 89.037zm0 0" data-name="Path 218" transform="translate(-155.374 -76.513)"/>
            <path id="Path_219" d="M96 89.037A1.037 1.037 0 1 0 97.037 88 1.037 1.037 0 0 0 96 89.037zm0 0" data-name="Path 219" transform="translate(-46.816 -76.513)"/>
            <path id="Path_220" d="M85.185 142.515h8.3a5.19 5.19 0 0 0 5.185-5.184 9.332 9.332 0 0 0-18.665 0 5.19 5.19 0 0 0 5.18 5.184zm0 0" class="cls-1" data-name="Path 220" transform="translate(-45.347 -111.258)"/>
            <path id="Path_221" d="M125.151 134.829v-.8a3.111 3.111 0 1 1 2.074 0v.8l2.807 2.807-1.466 1.466-2.378-2.377-2.378 2.375-1.466-1.466zm1.037-4.755a1.037 1.037 0 1 0 1.037 1.037 1.039 1.039 0 0 0-1.037-1.037zm0 0" data-name="Path 221" transform="translate(-82.234 -111.27)"/>
        </g>
        <g id="Group_95" data-name="Group 95" transform="translate(7708.73 936.758)">
            <path id="Path_222" d="M336.159 322.027l-1.995-1a5.558 5.558 0 0 0-2.475-.584h-8.371a5.229 5.229 0 0 0-1.756 7.117 6.586 6.586 0 0 1-.617 4.745 2.375 2.375 0 0 0 2.373 2.372h8.371a5.559 5.559 0 0 0 2.475-.585l1.995-1h2.186v-11.065zm-8.916 6.98a.857.857 0 0 1 .029.137.792.792 0 0 1-.791.791h-3.164a.791.791 0 1 1 0-1.582h1.408a2.3 2.3 0 0 0 2.518.654zm-4.716-3.026a.791.791 0 0 1 .791-.791h.791v1.582h-.791a.792.792 0 0 1-.791-.791zm.791-3.954h.936a2.35 2.35 0 0 0-.145.791v.791h-.791a.791.791 0 1 1 0-1.582zM324.9 333.1h-1.582a.791.791 0 1 1 0-1.582h3.164a.791.791 0 1 1 0 1.582zm11.864-1.582h-.978l-2.328 1.164a3.98 3.98 0 0 1-1.768.418h-2.98a3.676 3.676 0 0 1 .146-3.954 2.289 2.289 0 0 1 0-2.372v-1.584h1.267a6.145 6.145 0 0 0 4.134 1.582h.136v-1.582h-.136a4.577 4.577 0 0 1-3.257-1.35l-.232-.232h-3.491v3.163a.791.791 0 0 1-1.582 0v-3.954a.791.791 0 0 1 .791-.791h5.207a3.973 3.973 0 0 1 1.768.418l2.329 1.164h.978zm0 0" data-name="Path 222" transform="translate(-320.945 -295.93)"/>
            <path id="Path_223" d="M340.9 72.445h-1.582a2.375 2.375 0 0 0-2.373 2.372V87.8l1.582 1.582v7.581h4.745V74.818a2.375 2.375 0 0 0-2.373-2.372zm0 0" class="cls-1" data-name="Path 223" transform="translate(-335.363 -72.445)"/>
        </g>
    </g>
</svg>
