<svg xmlns="http://www.w3.org/2000/svg" width="80.395" height="80.398"><path d="M31.385 54.722l-9.4 8.755-5.062-5.06 8.755-9.4zm0 0" fill="#f7d82f"/><path d="M66.608 15.975l-12.06 13.4-3.526-3.525 13.4-12.057-1.736-1.927-22.6 20.343-4.04 3.833-3.817 4.025L1.1 73.523a4.09 4.09 0 0 0 .107 5.668 4.09 4.09 0 0 0 5.668.111l33.445-31.1a105.66 105.66 0 0 0 7.872-7.873l20.345-22.6zm-13.8 15.327l-1.944 2.173-3.936-3.94 2.164-1.948zm-17.845 9.61q.98-1.066 2-2.11l4.626 4.626q-1.045 1.017-2.11 2zm3.836-3.936q1.047-1.02 2.11-2l4.516 4.515q-.98 1.067-2 2.112zm-5.6 5.85l4.377 4.376-2.126 1.974-4.228-4.228zm.345 8.125l-2.13 1.982-3.947-3.947 1.982-2.13zM5.106 77.404a1.48 1.48 0 0 1-1.018.4 1.5 1.5 0 0 1-1.495-1.495c-.001-.378.142-.743.4-1.02l22.7-24.41 3.815 3.815zm42.072-39.84l-4.346-4.345L45 31.275l4.128 4.128zm0 0"/><path d="M67.364 18.16c-1.378.05-2.718-.456-3.717-1.406-2.678-2.678-1.406-8.148 2.9-12.452 2.7-2.694 5.96-4.3 8.737-4.3C76.66-.05 78 .457 79 1.407c2.677 2.678 1.406 8.148-2.9 12.452-2.7 2.694-5.96 4.3-8.736 4.3zm0 0" fill="#f7d82f"/></svg>