<svg xmlns="http://www.w3.org/2000/svg" width="80.138" height="80.137"><path d="M12.2 59.406C7.274 59.404 2.823 56.43.932 51.87a12.22 12.22 0 0 1 2.637-13.307l1.8-1.8a10.62 10.62 0 0 1 15.012 0l4.287 4.287L47.2 27.637l1.317 2.213-24.252 14.433-5.7-5.7a8.04 8.04 0 0 0-11.369 0l-1.8 1.8a9.64 9.64 0 0 0-.672 12.884c3.108 3.834 8.612 4.696 12.745 2l20.33-13.28 1.4 2.156-20.336 13.28a12.15 12.15 0 0 1-6.662 1.983zm41.762-24.88L52.56 32.37l15.47-10.1c3.82-2.5 7.052-5.8 9.477-9.668l-16.284 9.693-1.316-2.214 20.23-12.04v5.2l-.187.308a34.23 34.23 0 0 1-10.51 10.875zm0 0"/><path d="M41.835 55.375L74.674 0h-5.2l-.308.187c-4.368 2.66-8.085 6.266-10.88 10.55l-32.83 50.458c-2.445 3.757-2.644 8.55-.518 12.496s6.236 6.42 10.718 6.446h.044a12.08 12.08 0 0 0 8.615-3.582l1.8-1.81c4.146-4.167 4.146-10.9 0-15.067zm-5.482 18.3c-2.616.01-4.98-1.56-5.988-3.973s-.46-5.198 1.386-7.05 4.628-2.41 7.046-1.412 3.995 3.357 3.995 5.973a6.45 6.45 0 0 1-6.439 6.462zm0 0" fill="#f7d82f"/><path d="M12.878 54.263a7.73 7.73 0 0 1-7.727-7.727 7.73 7.73 0 0 1 7.727-7.727 7.73 7.73 0 0 1 7.727 7.727c-.004 4.266-3.46 7.723-7.727 7.727zm0-12.878a5.151 5.151 0 1 0 5.151 5.151c-.003-2.843-2.308-5.147-5.15-5.15zm23.3 33.6a7.73 7.73 0 0 1-7.14-4.77c-1.197-2.887-.535-6.2 1.675-8.42a7.73 7.73 0 0 1 13.19 5.465c-.004 4.266-3.46 7.723-7.727 7.727zm0-12.878a5.15 5.15 0 1 0 5.151 5.151c-.003-2.843-2.308-5.147-5.15-5.15zm0 0"/></svg>