<svg xmlns="http://www.w3.org/2000/svg" width="16" height="16.014"><path d="M14.607 14.954a1.09 1.09 0 0 1-.113.093l-.566.35c-.02.01-.05.03-.072.04-.873.383-1.815.58-2.768.576A5.8 5.8 0 0 1 6.931 14.4L1.59 9.057a6.3 6.3 0 0 1-1-6.906c.013-.033.03-.064.05-.093L1 1.513c.02-.03.05-.062.072-.093l.96-.957C2.326.168 2.726.001 3.143 0a1.45 1.45 0 0 1 1.019.422L6.94 3.2c.28.288.433.676.427 1.078s-.172.784-.46 1.063L5.82 6.432l3.715 3.715 1.112-1.112a1.4 1.4 0 0 1 1.06-.453c.393.001.77.157 1.05.432l2.78 2.78c.28.288.445.67.463 1.07.023.417-.13.824-.422 1.122zm.05-2.285L11.88 9.9c-.053-.05-.123-.074-.195-.07s-.14.037-.186.09l-1.543 1.544a.63.63 0 0 1-.875 0l-4.575-4.58c-.115-.115-.18-.27-.185-.432a.59.59 0 0 1 .185-.433l1.518-1.543a.29.29 0 0 0 .031-.4l-2.78-2.78c-.037-.04-.09-.063-.144-.062-.09.003-.173.038-.237.1L2 2.23l-.3.453a5.01 5.01 0 0 0 .762 5.475l5.34 5.362a4.58 4.58 0 0 0 3.293 1.256c.764.003 1.52-.15 2.223-.453l.473-.288.916-.916a.27.27 0 0 0 .062-.2c-.01-.09-.044-.178-.1-.25z" fill="#fff" opacity=".5"/></svg>