<svg xmlns="http://www.w3.org/2000/svg" width="16" height="16.014" viewBox="0 0 16 16.014">
    <defs>
        <style>
            .cls-1{fill:#fff;opacity:.5}
        </style>
    </defs>
    <path id="Path_293" d="M14.8 14.954a1.091 1.091 0 0 1-.113.093l-.566.35c-.021.01-.051.031-.072.041a6.843 6.843 0 0 1-2.768.576A5.8 5.8 0 0 1 7.124 14.4L1.782 9.057a6.3 6.3 0 0 1-1-6.906.416.416 0 0 1 .051-.093l.36-.545c.021-.031.051-.062.072-.093l.96-.957A1.575 1.575 0 0 1 3.336 0a1.45 1.45 0 0 1 1.019.422L7.134 3.2A1.513 1.513 0 0 1 7.1 5.341L6.012 6.432l3.715 3.715 1.112-1.112a1.4 1.4 0 0 1 1.06-.453 1.506 1.506 0 0 1 1.05.432l2.779 2.779a1.643 1.643 0 0 1 .463 1.07 1.487 1.487 0 0 1-.422 1.122zm.051-2.285L12.074 9.89a.265.265 0 0 0-.381.021l-1.543 1.544a.628.628 0 0 1-.875 0L4.7 6.875a.635.635 0 0 1-.185-.432.592.592 0 0 1 .185-.433l1.518-1.543a.291.291 0 0 0 .031-.4L3.47 1.286a.187.187 0 0 0-.144-.062.355.355 0 0 0-.237.1l-.906.906-.3.453a5.009 5.009 0 0 0 .762 5.475l5.341 5.362a4.578 4.578 0 0 0 3.293 1.256 5.575 5.575 0 0 0 2.223-.453l.473-.288.916-.916a.271.271 0 0 0 .062-.2.487.487 0 0 0-.1-.25z" class="cls-1" data-name="Path 293" transform="translate(-.193)"/>
</svg>
