<svg xmlns="http://www.w3.org/2000/svg" xmlns:xlink="http://www.w3.org/1999/xlink" width="202.629" height="150.681" viewBox="0 0 202.629 150.681">
    <defs>
        <style>
            .cls-1{fill:url(#linear-gradient)}.cls-2{fill:url(#linear-gradient-2)}.cls-3{fill:url(#linear-gradient-3)}.cls-4{fill:url(#linear-gradient-4)}.cls-5{fill:url(#linear-gradient-5)}.cls-6{fill:url(#linear-gradient-6)}.cls-7{fill:url(#linear-gradient-7)}.cls-8{fill:#fff}.cls-9{fill:url(#linear-gradient-8)}.cls-10{fill:url(#linear-gradient-9)}.cls-11{fill:url(#linear-gradient-10)}.cls-12{fill:url(#linear-gradient-11)}.cls-13{fill:url(#linear-gradient-12)}.cls-14{fill:url(#linear-gradient-13)}.cls-15{fill:url(#linear-gradient-14)}.cls-16{fill:url(#linear-gradient-15)}.cls-17{fill:url(#linear-gradient-16)}.cls-18{fill:#edeced}
        </style>
        <linearGradient id="linear-gradient" x1=".293" x2=".543" y1=".844" y2=".313" gradientUnits="objectBoundingBox">
            <stop offset="0" stop-color="#00a6f9"/>
            <stop offset="1" stop-color="#0071e2"/>
        </linearGradient>
        <linearGradient id="linear-gradient-2" x1=".136" x2=".779" y1=".269" y2="-1.005" gradientUnits="objectBoundingBox">
            <stop offset="0" stop-color="#c2cece"/>
            <stop offset="1" stop-color="#97aaaa"/>
        </linearGradient>
        <linearGradient id="linear-gradient-3" x1=".456" x2=".456" y1="-6.007" y2="-5.336" gradientUnits="objectBoundingBox">
            <stop offset="0" stop-color="#c2cece" stop-opacity="0"/>
            <stop offset=".179" stop-color="#afbcbc" stop-opacity=".18"/>
            <stop offset="1" stop-color="#5b6a6a"/>
        </linearGradient>
        <linearGradient id="linear-gradient-4" x1=".121" x2=".998" y1=".034" y2="-1.03" xlink:href="#linear-gradient"/>
        <linearGradient id="linear-gradient-5" x1=".463" x2=".463" y1="-.734" y2="-.866" gradientUnits="objectBoundingBox">
            <stop offset="0" stop-color="#008bf2" stop-opacity="0"/>
            <stop offset="1" stop-color="#0046e2"/>
        </linearGradient>
        <linearGradient id="linear-gradient-6" x1=".599" x2="-.002" y1="-.335" y2="1.162" xlink:href="#linear-gradient-5"/>
        <linearGradient id="linear-gradient-7" x1=".387" x2=".28" y1="-6.346" y2="-5.165" xlink:href="#linear-gradient-3"/>
        <linearGradient id="linear-gradient-8" x1=".373" x2=".373" y1="-.101" y2="1.267" xlink:href="#linear-gradient-3"/>
        <linearGradient id="linear-gradient-9" x1="-.296" x2="-.296" y1="-.102" y2="1.288" xlink:href="#linear-gradient-3"/>
        <linearGradient id="linear-gradient-10" x1="-.039" x2="-1.451" y1=".617" y2=".555" xlink:href="#linear-gradient-5"/>
        <linearGradient id="linear-gradient-11" x1=".481" x2=".035" y1="4.49" y2="4.919" xlink:href="#linear-gradient-5"/>
        <linearGradient id="linear-gradient-12" x1=".112" x2=".112" y1="7.096" y2="4.202" gradientUnits="objectBoundingBox">
            <stop offset="0" stop-color="#ffc200"/>
            <stop offset=".268" stop-color="#fb0"/>
            <stop offset=".659" stop-color="#ffa801"/>
            <stop offset="1" stop-color="#ff9102"/>
        </linearGradient>
        <linearGradient id="linear-gradient-13" x1="-.625" x2=".221" y1="6.64" y2="6.64" gradientUnits="objectBoundingBox">
            <stop offset="0" stop-color="#ffc200" stop-opacity="0"/>
            <stop offset=".203" stop-color="#fb0" stop-opacity=".204"/>
            <stop offset=".499" stop-color="#ffa700" stop-opacity=".498"/>
            <stop offset=".852" stop-color="#f80" stop-opacity=".851"/>
            <stop offset="1" stop-color="#ff7800"/>
        </linearGradient>
        <linearGradient id="linear-gradient-14" x1=".379" x2="-.068" y1="4.49" y2="4.919" xlink:href="#linear-gradient-5"/>
        <linearGradient id="linear-gradient-15" x1="-.115" x2="-.115" y1="7.096" y2="4.202" xlink:href="#linear-gradient-12"/>
        <linearGradient id="linear-gradient-16" x1="-1.079" x2="-.234" y1="6.64" y2="6.64" xlink:href="#linear-gradient-13"/>
    </defs>
    <g id="Group_170" data-name="Group 170" transform="translate(-208.781 -1568.515)">
        <g id="_001-calendar" data-name="001-calendar" transform="translate(256 1599.844)">
            <path id="Path_229" d="M128.675 42.994H42.794a4.371 4.371 0 0 0-4.37 4.37v90.158a4.371 4.371 0 0 0 4.37 4.37h85.882a4.371 4.371 0 0 0 4.37-4.37V47.364a4.371 4.371 0 0 0-4.371-4.37z" class="cls-1" data-name="Path 229" transform="translate(-30.069 -22.539)"/>
            <path id="Path_230" d="M128.678 311.725H42.8a4.369 4.369 0 0 1-4.37-4.37v-47.336h94.619v47.336a4.369 4.369 0 0 1-4.371 4.37z" class="cls-2" data-name="Path 230" transform="translate(-30.073 -192.373)"/>
            <path id="Path_231" d="M128.678 449.06H42.8a4.369 4.369 0 0 1-4.37-4.37v-9.176h94.619v9.176a4.369 4.369 0 0 1-4.371 4.37z" class="cls-3" data-name="Path 231" transform="translate(-30.073 -329.708)"/>
            <path id="Path_232" d="M106.96 300.045H4.371A4.369 4.369 0 0 1 .112 294.7l8.244-36.02h94.619l8.244 36.02a4.37 4.37 0 0 1-4.259 5.345z" class="cls-4" data-name="Path 232" transform="translate(0 -191.325)"/>
            <path id="Path_233" d="M106.96 300.045H4.371A4.369 4.369 0 0 1 .112 294.7l8.244-36.02h94.619l8.244 36.02a4.37 4.37 0 0 1-4.259 5.345z" class="cls-5" data-name="Path 233" transform="translate(0 -191.325)"/>
            <path id="Path_234" d="M137.033 300.045a4.369 4.369 0 0 0 4.259-5.344l-8.244-36.02H38.429l41.365 41.365z" class="cls-6" data-name="Path 234" transform="translate(-30.073 -191.325)"/>
            <path id="Path_235" d="M133.048 448.911H38.429v.146l10.487 10.487h79.763a4.369 4.369 0 0 0 4.37-4.37z" class="cls-7" data-name="Path 235" transform="translate(-30.073 -340.192)"/>
            <g id="Group_99" data-name="Group 99" transform="translate(33.081 43.395)">
                <path id="Path_236" d="M152.136 181.348v-18.435q0-7.284 3.864-10.706t10.326-3.421q6.462 0 10.358 3.421t3.9 10.706v18.435q0 7.286-3.9 10.706t-10.358 3.421q-6.462 0-10.326-3.421t-3.864-10.706zm6.715 0q0 8.172 7.476 8.172a7.4 7.4 0 0 0 5.575-2.027q1.963-2.026 1.964-6.145v-18.435q0-4.117-1.964-6.145a7.406 7.406 0 0 0-5.575-2.027q-7.476 0-7.476 8.172z" class="cls-8" data-name="Path 236" transform="translate(-152.136 -148.723)"/>
                <path id="Path_237" d="M301.885 158.124a3.024 3.024 0 0 1 1.33-2.6l6.589-6.335a2.325 2.325 0 0 1 1.71-.7 3.679 3.679 0 0 1 2.059.6 1.849 1.849 0 0 1 .918 1.615v41.946a1.819 1.819 0 0 1-1.014 1.615 4.5 4.5 0 0 1-2.344.6 4.451 4.451 0 0 1-2.376-.6 1.824 1.824 0 0 1-.982-1.615v-35.224l-2.217 2.787a1.937 1.937 0 0 1-1.394.633 1.987 1.987 0 0 1-1.615-.855 2.975 2.975 0 0 1-.664-1.867z" class="cls-8" data-name="Path 237" transform="translate(-269.323 -148.494)"/>
            </g>
            <g id="Group_100" data-name="Group 100" transform="translate(33.081 67.354)">
                <path id="Path_238" d="M173.863 258.679v8.666q0 4.12-1.963 6.147a7.4 7.4 0 0 1-5.573 2.027q-7.476 0-7.478-8.174v-8.666h-6.714v8.666q0 7.289 3.866 10.705t10.327 3.423q6.458 0 10.356-3.423t3.9-10.705v-8.666z" class="cls-9" data-name="Path 238" transform="translate(-152.135 -258.679)"/>
                <path id="Path_239" d="M328.983 258.679v20.2a1.827 1.827 0 0 0 .982 1.617 4.442 4.442 0 0 0 2.374.6 4.5 4.5 0 0 0 2.345-.6 1.821 1.821 0 0 0 1.014-1.617v-20.2z" class="cls-10" data-name="Path 239" transform="translate(-290.528 -258.679)"/>
            </g>
            <path id="Path_240" d="M458.653 125.913l-8.244-36.019v-42.53a4.371 4.371 0 0 0-4.37-4.37h-2.067a4.371 4.371 0 0 1 4.37 4.37v42.53l8.244 36.019a4.37 4.37 0 0 1-4.259 5.345h2.067a4.37 4.37 0 0 0 4.259-5.345z" class="cls-11" data-name="Path 240" transform="translate(-347.434 -22.539)"/>
            <path id="Path_241" d="M166.2 50.778a4.067 4.067 0 0 1-1.3-2.977v-4.807h8.156l6.661 6.661a11.322 11.322 0 0 1 3.316 8.006 4.155 4.155 0 0 1-3.89 4.191 4.067 4.067 0 0 1-3.165-1.292z" class="cls-12" data-name="Path 241" transform="translate(-129.045 -22.539)"/>
            <path id="Path_242" d="M168.981 29.34a4.078 4.078 0 0 1-4.078-4.078V18.27a4.078 4.078 0 0 1 4.078-4.078 4.078 4.078 0 0 1 4.078 4.078v6.991a4.078 4.078 0 0 1-4.078 4.079z" class="cls-13" data-name="Path 242" transform="translate(-129.046)"/>
            <path id="Path_243" d="M183.658 14.192V29.34a4.078 4.078 0 0 0 4.078-4.078V18.27a4.078 4.078 0 0 0-4.078-4.078z" class="cls-14" data-name="Path 243" transform="translate(-143.723)"/>
            <path id="Path_244" d="M302.507 50.778a4.067 4.067 0 0 1-1.3-2.977v-4.807h8.156l6.661 6.661a11.322 11.322 0 0 1 3.316 8.006 4.155 4.155 0 0 1-3.89 4.191 4.067 4.067 0 0 1-3.165-1.292z" class="cls-15" data-name="Path 244" transform="translate(-235.714 -22.539)"/>
            <path id="Path_245" d="M305.291 29.34a4.078 4.078 0 0 1-4.078-4.078V18.27a4.078 4.078 0 0 1 4.078-4.078 4.078 4.078 0 0 1 4.078 4.078v6.991a4.078 4.078 0 0 1-4.078 4.079z" class="cls-16" data-name="Path 245" transform="translate(-235.716)"/>
            <path id="Path_246" d="M319.968 14.192V29.34a4.078 4.078 0 0 0 4.078-4.078V18.27a4.078 4.078 0 0 0-4.078-4.078z" class="cls-17" data-name="Path 246" transform="translate(-250.393)"/>
        </g>
        <g id="paw-print" transform="rotate(-25 3844.419 384.454)">
            <g id="Group_168" data-name="Group 168" transform="translate(0 26.184)">
                <path id="Union_2" d="M15.777 21.494a12.759 12.759 0 0 0-1.859-1.077 5.585 5.585 0 0 0-1.167-.088 4.371 4.371 0 0 0-.923.065 13.763 13.763 0 0 0-1.936 1.052 5.423 5.423 0 0 1-2.685 1.1 2.265 2.265 0 0 1-1.241-.373 3.66 3.66 0 0 1-1.58-3.036A6.656 6.656 0 0 1 5.5 15.294a3.168 3.168 0 0 1 .249-.327 1.47 1.47 0 0 0 .176-.238 7.445 7.445 0 0 1 6.927-3.918H13a7.572 7.572 0 0 1 6.927 4 1.969 1.969 0 0 0 .192.291 3.769 3.769 0 0 1 .256.379c1.507 2.653 1.132 5.722-.837 6.84a2.255 2.255 0 0 1-1.125.306 5.118 5.118 0 0 1-2.636-1.133zm4.4-9.989c0-2.216 1.31-3.951 2.983-3.951s2.98 1.735 2.98 3.946-1.311 3.95-2.984 3.95-2.983-1.731-2.983-3.95zM0 11.5c0-2.211 1.311-3.946 2.983-3.946S5.967 9.289 5.967 11.5s-1.31 3.95-2.983 3.95S0 13.719 0 11.5zm13.152-6.418c0-2.8 1.7-5.082 3.786-5.082s3.786 2.28 3.786 5.082-1.7 5.081-3.786 5.081-3.786-2.279-3.786-5.081zm-8.05 0C5.1 2.28 6.8 0 8.887 0s3.786 2.28 3.786 5.082-1.7 5.081-3.786 5.081S5.1 7.884 5.1 5.082z" class="cls-18" data-name="Union 2"/>
            </g>
        </g>
        <g id="paw-print-2" data-name="paw-print" transform="rotate(34 -2341.393 1391.628)">
            <g id="Group_168-2" data-name="Group 168" transform="translate(0 26.184)">
                <path id="Union_2-2" d="M15.777 21.494a12.759 12.759 0 0 0-1.859-1.077 5.585 5.585 0 0 0-1.167-.088 4.371 4.371 0 0 0-.923.065 13.763 13.763 0 0 0-1.936 1.052 5.423 5.423 0 0 1-2.685 1.1 2.265 2.265 0 0 1-1.241-.373 3.66 3.66 0 0 1-1.58-3.036A6.656 6.656 0 0 1 5.5 15.294a3.168 3.168 0 0 1 .249-.327 1.47 1.47 0 0 0 .176-.238 7.445 7.445 0 0 1 6.927-3.918H13a7.572 7.572 0 0 1 6.927 4 1.969 1.969 0 0 0 .192.291 3.769 3.769 0 0 1 .256.379c1.507 2.653 1.132 5.722-.837 6.84a2.255 2.255 0 0 1-1.125.306 5.118 5.118 0 0 1-2.636-1.133zm4.4-9.989c0-2.216 1.31-3.951 2.983-3.951s2.98 1.735 2.98 3.946-1.311 3.95-2.984 3.95-2.983-1.731-2.983-3.95zM0 11.5c0-2.211 1.311-3.946 2.983-3.946S5.967 9.289 5.967 11.5s-1.31 3.95-2.983 3.95S0 13.719 0 11.5zm13.152-6.418c0-2.8 1.7-5.082 3.786-5.082s3.786 2.28 3.786 5.082-1.7 5.081-3.786 5.081-3.786-2.279-3.786-5.081zm-8.05 0C5.1 2.28 6.8 0 8.887 0s3.786 2.28 3.786 5.082-1.7 5.081-3.786 5.081S5.1 7.884 5.1 5.082z" class="cls-18" data-name="Union 2"/>
            </g>
        </g>
        <g id="dog-bone" transform="translate(388.123 1672.227)">
            <g id="Group_169" data-name="Group 169" transform="translate(.1 -.001)">
                <path id="Path_299" d="M19.867 3.423a3.287 3.287 0 1 0-6.242 1.3l-8.8 8.8a3.289 3.289 0 1 0-1.3 6.242 3.286 3.286 0 1 0 6.239-1.306l8.8-8.8a3.289 3.289 0 1 0 1.306-6.242z" class="cls-18" data-name="Path 299" transform="translate(-.1 .001)"/>
            </g>
        </g>
    </g>
</svg>
