<svg xmlns="http://www.w3.org/2000/svg" xmlns:xlink="http://www.w3.org/1999/xlink" width="202.629" height="150.681"><defs><linearGradient id="A" x1=".293" x2=".543" y1=".844" y2=".313"><stop offset="0" stop-color="#00a6f9"/><stop offset="1" stop-color="#0071e2"/></linearGradient><linearGradient id="B" x1=".136" x2=".779" y1=".269" y2="-1.005"><stop offset="0" stop-color="#c2cece"/><stop offset="1" stop-color="#97aaaa"/></linearGradient><linearGradient id="C" x1=".456" x2=".456" y1="-6.007" y2="-5.336"><stop offset="0" stop-color="#c2cece" stop-opacity="0"/><stop offset=".179" stop-color="#afbcbc" stop-opacity=".18"/><stop offset="1" stop-color="#5b6a6a"/></linearGradient><linearGradient id="D" x1=".121" x2=".998" y1=".034" y2="-1.03" xlink:href="#A"/><linearGradient id="E" x1=".463" x2=".463" y1="-.734" y2="-.866"><stop offset="0" stop-color="#008bf2" stop-opacity="0"/><stop offset="1" stop-color="#0046e2"/></linearGradient><linearGradient id="F" x1=".599" x2="-.002" y1="-.335" y2="1.162" xlink:href="#E"/><linearGradient id="G" x1=".387" x2=".28" y1="-6.346" y2="-5.165" xlink:href="#C"/><linearGradient id="H" x1=".373" x2=".373" y1="-.101" y2="1.267" xlink:href="#C"/><linearGradient id="I" x1="-.296" x2="-.296" y1="-.102" y2="1.288" xlink:href="#C"/><linearGradient id="J" x1="-.039" x2="-1.451" y1=".617" y2=".555" xlink:href="#E"/><linearGradient id="K" x1=".481" x2=".035" y1="4.49" y2="4.919" xlink:href="#E"/><linearGradient id="L" x1=".112" x2=".112" y1="7.096" y2="4.202"><stop offset="0" stop-color="#ffc200"/><stop offset=".268" stop-color="#fb0"/><stop offset=".659" stop-color="#ffa801"/><stop offset="1" stop-color="#ff9102"/></linearGradient><linearGradient id="M" x1="-.625" x2=".221" y1="6.64" y2="6.64"><stop offset="0" stop-color="#ffc200" stop-opacity="0"/><stop offset=".203" stop-color="#fb0" stop-opacity=".204"/><stop offset=".499" stop-color="#ffa700" stop-opacity=".498"/><stop offset=".852" stop-color="#f80" stop-opacity=".85"/><stop offset="1" stop-color="#ff7800"/></linearGradient><linearGradient id="N" x1=".379" x2="-.068" y1="4.49" y2="4.919" xlink:href="#E"/><linearGradient id="O" x1="-.115" x2="-.115" xlink:href="#L"/><linearGradient id="P" x1="-1.079" x2="-.234" xlink:href="#M"/><path id="Q" d="M154.18 140.05H51.6a4.37 4.37 0 0 1-4.259-5.345l8.244-36.02h94.62l8.244 36.02a4.37 4.37 0 0 1-4.259 5.345z"/><path id="R" d="M84.374 59.568c-.828-.77-1.3-1.847-1.3-2.977v-4.807h8.156l6.66 6.66a11.32 11.32 0 0 1 3.316 8.006c.024 2.21-1.685 4.05-3.9 4.19-1.194.055-2.35-.417-3.165-1.292z"/><path id="S" d="M87.154 45.52V60.67a4.08 4.08 0 0 0 4.078-4.078V49.6a4.08 4.08 0 0 0-4.078-4.078z"/></defs><path d="M145.825 51.784h-85.88a4.37 4.37 0 0 0-4.37 4.37v90.158a4.37 4.37 0 0 0 4.37 4.37h85.882a4.37 4.37 0 0 0 4.37-4.37V56.154a4.37 4.37 0 0 0-4.371-4.37z" fill="url(#A)"/><path d="M145.824 150.68H59.946a4.37 4.37 0 0 1-4.37-4.37V98.975h94.62v47.336a4.37 4.37 0 0 1-4.371 4.37z" fill="url(#B)"/><path d="M145.824 150.68H59.946a4.37 4.37 0 0 1-4.37-4.37v-9.176h94.62v9.176a4.37 4.37 0 0 1-4.371 4.37z" fill="url(#C)"/><use xlink:href="#Q" fill="url(#D)"/><use xlink:href="#Q" fill="url(#E)"/><path d="M154.18 140.05a4.37 4.37 0 0 0 4.259-5.344l-8.244-36.02h-94.62L96.94 140.05z" fill="url(#F)"/><path d="M150.194 140.048h-94.62v.146l10.487 10.487h79.763a4.37 4.37 0 0 0 4.37-4.37z" fill="url(#G)"/><path d="M80.3 107.35V88.914q0-7.284 3.864-10.706 3.864-3.422 10.326-3.42 6.462 0 10.358 3.42 3.896 3.42 3.9 10.706v18.435q0 7.286-3.9 10.706-3.9 3.42-10.358 3.42-6.462 0-10.326-3.42-3.864-3.42-3.864-10.706zm6.715 0q0 8.172 7.476 8.172a7.4 7.4 0 0 0 5.575-2.027q1.963-2.026 1.964-6.145V88.914q0-4.117-1.964-6.145c-1.495-1.423-3.515-2.158-5.575-2.027q-7.476 0-7.476 8.172zm25.847-22.996c-.032-1.037.47-2.02 1.33-2.6l6.6-6.335a2.32 2.32 0 0 1 1.7-.7 3.68 3.68 0 0 1 2.059.6 1.85 1.85 0 0 1 .918 1.615v41.946a1.82 1.82 0 0 1-1.014 1.615 4.5 4.5 0 0 1-2.344.6 4.45 4.45 0 0 1-2.376-.6c-.602-.314-.98-.936-.982-1.615V83.656l-2.217 2.787a1.94 1.94 0 0 1-1.394.633 1.99 1.99 0 0 1-1.615-.855c-.428-.528-.663-1.187-.664-1.867z" fill="#fff"/><path d="M102.028 98.683v8.666q0 4.12-1.963 6.147a7.4 7.4 0 0 1-5.573 2.027q-7.476 0-7.478-8.174v-8.666H80.3v8.666q0 7.29 3.866 10.705 3.866 3.416 10.327 3.423 6.458 0 10.356-3.423 3.898-3.423 3.9-10.705v-8.666z" fill="url(#H)"/><path d="M118.755 98.683v20.2c.001.68.38 1.303.982 1.617a4.44 4.44 0 0 0 2.374.6 4.5 4.5 0 0 0 2.345-.6 1.82 1.82 0 0 0 1.014-1.617v-20.2z" fill="url(#I)"/><path d="M158.438 134.703l-8.244-36.02v-42.53a4.37 4.37 0 0 0-4.37-4.37h-2.067a4.37 4.37 0 0 1 4.37 4.37v42.53l8.244 36.02a4.37 4.37 0 0 1-4.259 5.345h2.067a4.37 4.37 0 0 0 4.259-5.345z" fill="url(#J)"/><use xlink:href="#R" fill="url(#K)"/><path d="M87.154 60.67a4.08 4.08 0 0 1-4.078-4.078V49.6a4.08 4.08 0 0 1 4.078-4.078 4.08 4.08 0 0 1 4.078 4.078v6.99a4.08 4.08 0 0 1-4.078 4.079z" fill="url(#L)"/><use xlink:href="#S" fill="url(#M)"/><use xlink:href="#R" x="29.638" fill="url(#N)"/><path d="M116.794 60.67a4.08 4.08 0 0 1-4.078-4.078V49.6a4.08 4.08 0 0 1 6.962-2.884 4.08 4.08 0 0 1 1.194 2.884v6.99a4.08 4.08 0 0 1-4.078 4.079z" fill="url(#O)"/><use xlink:href="#S" x="29.64" fill="url(#P)"/><path d="M23.382 128.77a12.76 12.76 0 0 0-2.14-.19 5.72 5.72 0 0 0-1.095.413 4.37 4.37 0 0 0-.809.449 12.96 12.96 0 0 0-1.3 1.772 5.41 5.41 0 0 1-1.97 2.132 2.26 2.26 0 0 1-1.282.186 3.66 3.66 0 0 1-2.715-2.084c-.605-1.224-.82-2.604-.614-3.954a3.17 3.17 0 0 1 .087-.402 1.47 1.47 0 0 0 .059-.29c.16-2.87 1.96-5.393 4.622-6.478l.134-.063a7.57 7.57 0 0 1 7.968.698 1.97 1.97 0 0 0 .297.183 3.77 3.77 0 0 1 .392.235c2.487 1.768 3.444 4.707 2.132 6.553-.226.325-.533.584-.9.753a5.12 5.12 0 0 1-2.868.087zm-.234-10.913c-.937-2.008-.483-4.134 1.034-4.84s3.434.313 4.368 2.317.48 4.134-1.035 4.84-3.435-.308-4.373-2.32zM4.86 126.38c-.934-2.004-.48-4.13 1.036-4.837s3.438.3 4.372 2.315.482 4.134-1.034 4.84-3.436-.308-4.374-2.32zm9.207-11.375c-1.183-2.538-.607-5.324 1.284-6.206s4.395.466 5.58 3.006.607 5.323-1.284 6.205-4.394-.465-5.58-3.005zm-7.296 3.402c-1.186-2.54-.6-5.323 1.283-6.205s4.395.466 5.58 3.006.607 5.323-1.284 6.205-4.395-.465-5.58-3.004zM155.536 27.04a12.76 12.76 0 0 0-.939-1.932c-.28-.273-.588-.517-.918-.726a4.37 4.37 0 0 0-.802-.462c-.724-.13-1.458-.2-2.193-.2a5.43 5.43 0 0 1-2.84-.59c-.365-.247-.65-.596-.82-1.003a3.66 3.66 0 0 1 .388-3.4c.737-1.15 1.8-2.044 3.073-2.563a3.17 3.17 0 0 1 .389-.132 1.47 1.47 0 0 0 .279-.099 7.45 7.45 0 0 1 7.934.625l.123.083a7.57 7.57 0 0 1 3.506 7.19 1.97 1.97 0 0 0-.004.349 3.77 3.77 0 0 1 0 .457c-.234 3.042-2.26 5.377-4.52 5.203-.394-.026-.775-.156-1.104-.375a5.12 5.12 0 0 1-1.552-2.413zm9.234-5.82c1.24-1.837 3.295-2.543 4.682-1.607s1.5 3.105.264 4.938-3.296 2.542-4.683 1.606-1.505-3.103-.264-4.943zM148.045 9.933c1.236-1.833 3.293-2.538 4.68-1.603s1.504 3.107.267 4.94-3.295 2.542-4.682 1.607-1.506-3.104-.265-4.943zm14.492 2.034c1.566-2.32 4.25-3.263 5.98-2.096s1.864 4.007.297 6.33-4.25 3.262-5.98 2.095-1.864-4.006-.297-6.33zm-6.674-4.502c1.565-2.324 4.25-3.264 5.98-2.097s1.864 4.007.297 6.33-4.25 3.262-5.98 2.095-1.865-4.007-.298-6.33zm43.347 99.67c.056-1.368-.742-2.628-2.003-3.16a3.29 3.29 0 0 0-3.664.763c-.944.993-1.172 2.466-.575 3.698l-8.8 8.8a3.29 3.29 0 1 0-1.3 6.242c-.054 1.368.745 2.626 2.006 3.158s2.72.227 3.662-.766a3.28 3.28 0 0 0 .57-3.697l8.8-8.8a3.29 3.29 0 1 0 1.306-6.242z" fill="#edeced"/></svg>