<svg xmlns="http://www.w3.org/2000/svg" width="16" height="16"><path d="M14.4 0H1.6A1.6 1.6 0 0 0 0 1.6v12.8A1.6 1.6 0 0 0 1.6 16h12.8a1.6 1.6 0 0 0 1.6-1.6V1.6A1.6 1.6 0 0 0 14.4 0zm-1.84 5.84c-.08 3.68-2.4 6.24-5.92 6.4a5.823 5.823 0 0 1-3.44-.96 4.247 4.247 0 0 0 3.12-.88 2.161 2.161 0 0 1-2-1.52 3.227 3.227 0 0 0 .88 0 2.179 2.179 0 0 1-1.68-2.16 1.613 1.613 0 0 0 .88.24 2.366 2.366 0 0 1-.64-2.88 6.339 6.339 0 0 0 4.4 2.24 2.162 2.162 0 0 1 3.68-1.92 5.389 5.389 0 0 0 1.36-.48 2.262 2.262 0 0 1-.88 1.2 4.586 4.586 0 0 0 1.12-.32c-.08.4-.48.72-.88 1.04z" fill="#fff" opacity=".8"/></svg>