<svg xmlns="http://www.w3.org/2000/svg" width="62.201" height="59" viewBox="0 0 62.201 59">
    <defs>
        <style>
            .cls-1{fill:#fff}.cls-2{fill:#f7d82f}
        </style>
    </defs>
    <g id="Group_86" data-name="Group 86" transform="translate(-564 -818)">
        <circle id="Ellipse_9" cx="25" cy="25" r="25" class="cls-1" data-name="Ellipse 9" transform="translate(564 818)"/>
        <g id="Group_95" data-name="Group 95" transform="translate(-7075 -80)">
            <g id="dog" transform="translate(7646 916)">
                <path id="Path_217" d="M9 24.053a12.311 12.311 0 0 1 2.62-13.576l.469-.468a2.25 2.25 0 0 1 3.84 1.588v.1a2.253 2.253 0 0 1-.493 1.4l-.8 1a7.211 7.211 0 0 0-1.069 7.194l.722 1.8c.062-.025.122-.053.184-.076a33.99 33.99 0 0 0 13.477-7.31l.357-.316a4.286 4.286 0 0 1-.123-1.006V12.2A3.189 3.189 0 0 1 25.3 9.035a13.075 13.075 0 0 1 1.726-6.487 5.074 5.074 0 0 1 7.985-1.067l.381.38a10.007 10.007 0 0 1 5.761 0l.381-.38a5.074 5.074 0 0 1 7.985 1.067 13.075 13.075 0 0 1 1.726 6.487 3.19 3.19 0 0 1-2.887 3.165v2.19a4.324 4.324 0 0 1-4.324 4.31v-1.437a2.883 2.883 0 0 0 2.883-2.877v-2.877a8.648 8.648 0 0 0-17.3 0v2.877a2.883 2.883 0 0 0 2.883 2.877V18.7a4.324 4.324 0 0 1-3.6-1.922 35.346 35.346 0 0 1-13.994 7.6 8.373 8.373 0 0 0-5.468 7.827 8.278 8.278 0 0 0 2.447 5.9 4.938 4.938 0 0 0 3.515 1.457h12.058a1.439 1.439 0 1 0 0-2.877h-7.207v-1.439h3.6v-1.388a11.473 11.473 0 0 0-3.392-8.174l1.019-1.017a12.887 12.887 0 0 1 3.722 7.7h2.528a16.442 16.442 0 0 0 4.051-.516v-3.8h1.441v10.791a.721.721 0 0 0 .721.719h4.767a1 1 0 0 0 .369-1.921l-2.976-1.189v-.815a10.753 10.753 0 0 1 .69-3.8 22.977 22.977 0 0 0 1.472-8.1h1.447a24.371 24.371 0 0 1-.279 3.654 9.978 9.978 0 0 0 2.441-6.531h1.441a11.44 11.44 0 0 1-.752 4.05 24.426 24.426 0 0 1-1.532 7.436 9.316 9.316 0 0 0-.6 3.132l2.071.823a2.435 2.435 0 0 1-.906 4.7h-7.65a2.163 2.163 0 0 1-2.162-2.158v-5.508a17.877 17.877 0 0 1-4.051.473h-2.438V35.246h2.162a2.877 2.877 0 1 1 0 5.754H15.4a6.371 6.371 0 0 1-4.53-1.873 9.723 9.723 0 0 1-.886-12.781zm39.32-13.291a1.754 1.754 0 0 0 1.48-1.727 11.633 11.633 0 0 0-1.536-5.772 3.62 3.62 0 0 0-5.641-.824 10.074 10.074 0 0 1 5.7 8.323zM33.914 2.439a3.62 3.62 0 0 0-5.641.824 11.633 11.633 0 0 0-1.536 5.772 1.754 1.754 0 0 0 1.48 1.726 10.074 10.074 0 0 1 5.697-8.322zm6.814 25.651a11.521 11.521 0 0 1-1.549 1.581c-.084.07-.17.137-.256.205a24.693 24.693 0 0 1-.777 2.47 9.316 9.316 0 0 0-.6 3.132l1.441.575v-.417a10.753 10.753 0 0 1 .69-3.8 23.005 23.005 0 0 0 1.049-3.751zm1.865 10.475a.992.992 0 0 0-.628-.925l-1.289-.515a2.422 2.422 0 0 1 .476 1.44 2.4 2.4 0 0 1-.219 1h.663a1 1 0 0 0 1-1zM12.979 23.713l-.756-1.884a8.648 8.648 0 0 1 1.282-8.629l.8-1a.81.81 0 0 0 .177-.5v-.1a.809.809 0 0 0-1.379-.57l-.469.468a10.877 10.877 0 0 0-2.314 11.993l.718 1.672a9.876 9.876 0 0 1 1.938-1.446zm0 0" data-name="Path 217" transform="translate(-8)"/>
                <path id="Path_218" d="M192 88.714a.714.714 0 1 0 .714-.714.714.714 0 0 0-.714.714zm0 0" data-name="Path 218" transform="translate(-166.768 -80.086)"/>
                <path id="Path_219" d="M96 88.714a.714.714 0 1 0 .714-.714.714.714 0 0 0-.714.714zm0 0" data-name="Path 219" transform="translate(-62.118 -80.086)"/>
                <path id="Path_220" d="M83.572 138h5.715a3.576 3.576 0 0 0 3.572-3.572 6.429 6.429 0 1 0-12.858 0A3.576 3.576 0 0 0 83.572 138zm0 0" class="cls-2" data-name="Path 220" transform="translate(-56.128 -116.465)"/>
                <path id="Path_221" d="M124.277 132.705v-.55a2.143 2.143 0 1 1 1.429 0v.55l1.934 1.934-1.01 1.01-1.638-1.638-1.638 1.638-1.01-1.01zm.714-3.276a.714.714 0 1 0 .714.714.716.716 0 0 0-.713-.714zm0 0" data-name="Path 221" transform="translate(-94.712 -116.473)"/>
            </g>
            <g id="Group_95-2" data-name="Group 95" transform="translate(7689.214 930.302)">
                <path id="Path_222" d="M331.426 321.535l-1.374-.687a3.829 3.829 0 0 0-1.705-.4h-5.767a3.6 3.6 0 0 0-1.21 4.9 4.538 4.538 0 0 1-.425 3.269 1.637 1.637 0 0 0 1.635 1.635h5.767a3.829 3.829 0 0 0 1.705-.4l1.374-.687h1.506v-7.628zm-6.142 4.809a.589.589 0 0 1 .02.094.546.546 0 0 1-.545.545h-2.179a.545.545 0 1 1 0-1.09h.97a1.584 1.584 0 0 0 1.734.45zm-3.249-2.085a.545.545 0 0 1 .545-.545h.545v1.09h-.545a.545.545 0 0 1-.545-.545zm.545-2.724h.645a1.619 1.619 0 0 0-.1.545v.545h-.545a.545.545 0 1 1 0-1.09zm1.09 7.628h-1.09a.545.545 0 1 1 0-1.09h2.179a.545.545 0 0 1 0 1.09zm8.173-1.09h-.674l-1.6.8a2.741 2.741 0 0 1-1.218.288h-2.053a2.533 2.533 0 0 1 .1-2.724 1.577 1.577 0 0 1 0-1.635v-1.09h.873a4.233 4.233 0 0 0 2.848 1.09h.093v-1.09h-.094a3.153 3.153 0 0 1-2.245-.93l-.16-.16H325.3v2.178a.545.545 0 1 1-1.09 0v-2.72a.545.545 0 0 1 .545-.545h3.587a2.737 2.737 0 0 1 1.218.288l1.6.8h.674zm0 0" data-name="Path 222" transform="translate(-320.945 -303.554)"/>
                <path id="Path_223" d="M339.669 72.445h-1.09a1.636 1.636 0 0 0-1.635 1.635v8.943l1.09 1.09v5.223h3.266V74.08a1.636 1.636 0 0 0-1.635-1.635zm0 0" class="cls-2" data-name="Path 223" transform="translate(-335.855 -72.445)"/>
            </g>
        </g>
    </g>
</svg>
