<svg xmlns="http://www.w3.org/2000/svg" width="61.71" height="59.092" viewBox="0 0 61.71 59.092">
    <defs>
        <style>
            .cls-1{fill:#fff}.cls-2{fill:#f7d82f}
        </style>
    </defs>
    <g id="Group_86" data-name="Group 86" transform="translate(-564 -818)">
        <circle id="Ellipse_9" cx="25" cy="25" r="25" class="cls-1" data-name="Ellipse 9" transform="translate(564 818)"/>
        <g id="_022-beauty" data-name="022-beauty" transform="translate(590 836.092)">
            <path id="Path_204" d="M34.771 296.182l-.077-.088A10.882 10.882 0 0 1 32 288.925v-.444a10.964 10.964 0 0 1 .205-2.114l1.3.254a9.642 9.642 0 0 0-.181 1.86v.444a9.567 9.567 0 0 0 2.367 6.3l.077.088zm0 0" data-name="Path 204" transform="translate(-29.361 -262.679)"/>
            <path id="Path_205" d="M37.628 262.411l-1.277-.335a10.96 10.96 0 0 1 .494-1.451l1.217.511a9.631 9.631 0 0 0-.434 1.275zm0 0" data-name="Path 205" transform="translate(-33.353 -239.079)"/>
            <path id="Path_206" d="M47.268 237.283l-1.178-.594a10.855 10.855 0 0 1 .86-1.423l1.074.766a9.555 9.555 0 0 0-.756 1.25zm0 0" data-name="Path 206" transform="translate(-42.288 -215.816)"/>
            <path id="Path_207" d="M265.686 319l-1.053-.794a9.628 9.628 0 0 0 1.927-5.758V312h1.32v.444a10.953 10.953 0 0 1-2.194 6.556zm0 0" data-name="Path 207" transform="translate(-242.753 -286.198)"/>
            <path id="Path_208" d="M244.477 396.013l1.156-1.322.993.869-1.156 1.322zm0 0" data-name="Path 208" transform="translate(-224.265 -362.062)"/>
            <path id="Path_209" d="M27.792 26.236v-.445a13.51 13.51 0 0 0-7.941-12.326v-.9a3.311 3.311 0 0 0-3.309-3.306h-.662V7.936h1.32V6.613h8.6V5.291h-8.6V3.968h8.6V2.646h-8.6v-.662A1.987 1.987 0 0 0 15.219 0h-2.646a1.987 1.987 0 0 0-1.985 1.984v5.952h1.323v1.323h-.662a3.311 3.311 0 0 0-3.309 3.306v.9A13.51 13.51 0 0 0 0 25.791v.445a13.544 13.544 0 0 0 3.356 8.927l.573.654A2.638 2.638 0 0 0 4.632 41H23.16a2.638 2.638 0 0 0 .7-5.184l.573-.654a13.544 13.544 0 0 0 3.356-8.927zM11.911 1.984a.662.662 0 0 1 .662-.661h2.647a.662.662 0 0 1 .662.661v4.629h-3.97zm1.323 5.952h1.323v1.322h-1.323zm-1.985 2.645h5.294a1.987 1.987 0 0 1 1.985 1.984v.661H9.264v-.661a1.987 1.987 0 0 1 1.985-1.984zM1.323 26.236v-.445a12.2 12.2 0 0 1 7.414-11.242h10.319a12.2 12.2 0 0 1 7.413 11.242v.445a12.227 12.227 0 0 1-3.029 8.057L22.2 35.71H5.594l-1.242-1.418a12.225 12.225 0 0 1-3.029-8.056zm23.16 12.12a1.324 1.324 0 0 1-1.323 1.323H4.632a1.323 1.323 0 1 1 0-2.645H23.16a1.324 1.324 0 0 1 1.323 1.321zm0 0" data-name="Path 209" transform="translate(0 -.001)"/>
            <path id="Path_210" d="M310.248 9.237a4.321 4.321 0 0 1-2.138-.567L304 6.321v-3.4l4.109-2.353a4.309 4.309 0 0 1 6.448 3.741v.618a4.315 4.315 0 0 1-4.309 4.31zm0 0" class="cls-2" data-name="Path 210" transform="translate(-278.847)"/>
            <path id="Path_211" d="M348.687 34.387l-.655-1.146 1.787-1.022a1.671 1.671 0 0 1 2.5 1.45v.31H351v-.31a.363.363 0 0 0-.524-.3zm0 0" data-name="Path 211" transform="translate(-319.247 -29.361)"/>
            <path id="Path_224" d="M191.481 181.962a6.981 6.981 0 1 1 6.981-6.981 6.989 6.989 0 0 1-6.981 6.981zm0 0" class="cls-2" data-name="Path 224" transform="translate(-177.6 -149.709)"/>
            <path id="Path_225" d="M274 210.992a1.5 1.5 0 1 1 1.5-1.5 1.5 1.5 0 0 1-1.5 1.5zm0-1.992a.5.5 0 1 0 .5.5.5.5 0 0 0-.5-.5zm0 0" data-name="Path 225" transform="translate(-260.11 -187.228)"/>
            <path id="Path_226" d="M223.1 232.095a1.5 1.5 0 1 1 1.058-.437 1.491 1.491 0 0 1-1.058.437zm0-1.993a.5.5 0 1 0 .352.145.5.5 0 0 0-.352-.147zm0 0" data-name="Path 226" transform="translate(-212.397 -207.013)"/>
            <path id="Path_227" d="M324.911 232.095a1.5 1.5 0 1 1 1.058-.437 1.491 1.491 0 0 1-1.058.437zm0-1.993a.5.5 0 1 0 .353.145.5.5 0 0 0-.353-.147zm0 0" data-name="Path 227" transform="translate(-307.843 -207.013)"/>
            <path id="Path_228" d="M243.991 276.986c-1.957 0-3.491-1.095-3.491-2.493s1.534-2.493 3.491-2.493 3.491 1.095 3.491 2.493-1.534 2.493-3.491 2.493zm0-3.989c-1.351 0-2.493.685-2.493 1.5s1.142 1.5 2.493 1.5 2.493-.685 2.493-1.5-1.142-1.497-2.493-1.497zm0 0" data-name="Path 228" transform="translate(-230.106 -247.225)"/>
        </g>
    </g>
</svg>
