<svg xmlns="http://www.w3.org/2000/svg" width="62.053" height="59.398" viewBox="0 0 62.053 59.398">
    <defs>
        <style>
            .cls-1{fill:#fff}.cls-2{fill:#f7d82f}
        </style>
    </defs>
    <g id="Group_86" data-name="Group 86" transform="translate(-564 -818)">
        <circle id="Ellipse_9" cx="25" cy="25" r="25" class="cls-1" data-name="Ellipse 9" transform="translate(564 818)"/>
        <g id="_004-soap" data-name="004-soap" transform="translate(591.5 836)">
            <path id="Path_36" d="M19.2 17.825v-2.691a2.016 2.016 0 0 0-.4-1.2l-1.469-1.958a.67.67 0 0 1-.134-.4v-1.561a2 2 0 0 0-1.335-1.88V5.341h-1.34V2a2.006 2.006 0 0 0-2-2H7.177a2.006 2.006 0 0 0-2 2v3.341H3.839v2.794a2 2 0 0 0-1.339 1.88v1.558a.67.67 0 0 1-.134.4L.9 13.933a2.013 2.013 0 0 0-.4 1.2v22.48a2.013 2.013 0 0 0 .4 1.2L2.236 40.6a2.014 2.014 0 0 0 1.6.8h12.021a2.012 2.012 0 0 0 1.6-.8l1.343-1.784a2.013 2.013 0 0 0 .4-1.2v-8.7h-1.339v7.142H15.19v1.335h2.671v.222a.67.67 0 0 1-.134.4L16.391 39.8a.67.67 0 0 1-.534.267H3.839A.67.67 0 0 1 3.3 39.8l-1.331-1.785a.67.67 0 0 1-.134-.4v-.222h12.019v-1.337H1.835V16.025h12.019v-1.336H2l1.436-1.914a2.013 2.013 0 0 0 .4-1.2v-1.56a.669.669 0 0 1 .668-.668H15.19a.669.669 0 0 1 .668.668v1.558a2.016 2.016 0 0 0 .4 1.2l1.435 1.914h-2.5v1.335h2.671v1.8zM6.509 2a.669.669 0 0 1 .668-.668h5.342a.669.669 0 0 1 .668.668v.668H6.509zm0 6.009H5.174V6.677h1.335zm0-4.006h6.677v1.338H6.509zM9.18 8.012H7.845V6.677H9.18zm2.671 0h-1.335V6.677h1.335zm2.671 0h-1.335V6.677h1.335zm0 0" data-name="Path 36"/>
            <path id="Path_37" d="M39.177 359c-3.216 0-6.677-.836-6.677-2.671 0-1.749 3.045-2.345 4.354-2.52l.178 1.323c-2.4.321-3.2 1.034-3.2 1.2 0 .343 1.836 1.335 5.342 1.335s5.342-.992 5.342-1.335c0-.163-.8-.876-3.2-1.2l.178-1.323c1.308.175 4.353.77 4.353 2.52 0 1.835-3.462 2.671-6.677 2.671zm0 0" data-name="Path 37" transform="translate(-29.329 -324.278)"/>
            <path id="Path_38" d="M75.872 273.9h-.065a3.306 3.306 0 0 1-2.871-4.946l2.9-5.081 2.9 5.08a3.307 3.307 0 0 1-2.871 4.947zm0 0" class="cls-2" data-name="Path 38" transform="translate(-65.991 -241.848)"/>
            <path id="Path_39" d="M193.848 186.7a9.348 9.348 0 1 1 9.348-9.348 9.358 9.358 0 0 1-9.348 9.348zm0 0" class="cls-2" data-name="Path 39" transform="translate(-168.643 -153.978)"/>
            <path id="Path_40" d="M104.5 208h1.335v1.335H104.5zm0 0" data-name="Path 40" transform="translate(-95.32 -190.64)"/>
            <path id="Path_41" d="M104.5 240h1.335v1.335H104.5zm0 0" data-name="Path 41" transform="translate(-95.32 -219.969)"/>
            <path id="Path_42" d="M274.5 212.006a2 2 0 1 1 2-2 2.006 2.006 0 0 1-2 2zm0-2.671a.668.668 0 1 0 .668.668.669.669 0 0 0-.668-.668zm0 0" data-name="Path 42" transform="translate(-249.298 -190.64)"/>
            <path id="Path_43" d="M223.609 233.108a2 2 0 1 1 1.417-.586 2 2 0 0 1-1.417.586zm0-2.669a.667.667 0 1 0 .472.194.664.664 0 0 0-.472-.194zm0 0" data-name="Path 43" transform="translate(-202.653 -209.983)"/>
            <path id="Path_44" d="M325.418 233.108a2 2 0 1 1 1.416-.586 2 2 0 0 1-1.416.586zm0-2.669a.667.667 0 1 0 .472.194.666.666 0 0 0-.472-.194zm0 0" data-name="Path 44" transform="translate(-295.963 -209.983)"/>
            <path id="Path_45" d="M245.174 278.677c-2.621 0-4.674-1.466-4.674-3.339s2.053-3.338 4.674-3.338 4.674 1.466 4.674 3.339-2.053 3.338-4.674 3.338zm0-5.342c-1.81 0-3.339.917-3.339 2s1.529 2 3.339 2 3.339-.917 3.339-2-1.529-2-3.339-2zm0 0" data-name="Path 45" transform="translate(-219.969 -249.298)"/>
        </g>
    </g>
</svg>
