<svg xmlns="http://www.w3.org/2000/svg" width="58.997" height="56.695"><circle cx="25" cy="25" r="25" fill="#fff"/><path d="M34.005 43.6l-4.8 4.465-2.58-2.58 4.465-4.8zm0 0" fill="#f7d82f"/><path d="M51.967 23.844l-6.15 6.83-1.8-1.8 6.832-6.15-.885-.983L38.44 32.12l-2.06 1.955-1.947 2.053L18.56 53.19c-.774.82-.756 2.107.04 2.904s2.084.817 2.904.043L38.56 40.27a53.79 53.79 0 0 0 4.014-4.015L52.95 24.73zm-7.035 7.816l-.994 1.1-2.007-2.005 1.1-.993zm-9.1 4.9q.5-.543 1.02-1.076l2.36 2.36q-.533.52-1.076 1.02zm1.955-2.012q.534-.52 1.076-1.02l2.3 2.3q-.5.544-1.02 1.077zm-2.855 2.983l2.232 2.232-1.087 1.01-2.156-2.156zm.176 4.144l-1.086 1.01L32 40.673l1.01-1.087zM20.6 55.168c-.14.13-.327.202-.52.2-.42-.001-.76-.342-.762-.762-.001-.193.073-.38.205-.52L31.11 41.642l1.945 1.946zm21.46-20.313l-2.216-2.216 1.1-.993 2.105 2.105zm0 0"/><path d="M52.353 24.955a2.61 2.61 0 0 1-1.9-.717c-1.366-1.366-.717-4.155 1.476-6.35a6.76 6.76 0 0 1 4.46-2.193 2.61 2.61 0 0 1 1.895.717c1.365 1.366.717 4.155-1.476 6.35a6.76 6.76 0 0 1-4.455 2.193zm0 0" fill="#f7d82f"/></svg>