<svg xmlns="http://www.w3.org/2000/svg" xmlns:xlink="http://www.w3.org/1999/xlink" width="52.975" height="59.152"><circle cx="25" cy="25" r="25" fill="#fff"/><path d="M40.217 54.506h-.242c-2.05.033-5.568-.358-6.8-1.57a1.5 1.5 0 0 1-.492-1.083 119.89 119.89 0 0 0-1.98-17.136 4.76 4.76 0 0 1 2.358-4.7c1.69-.65 3.508-.9 5.31-.73h3.22c1.8-.17 3.618.08 5.307.728a4.76 4.76 0 0 1 2.358 4.7 119.89 119.89 0 0 0-1.98 17.136 1.5 1.5 0 0 1-.492 1.083c-1.17 1.167-4.478 1.573-6.57 1.573z" fill="#f7d82f"/><path d="M39.988 43.222a4.43 4.43 0 0 1-3.913-2.359 1.91 1.91 0 0 1 .012-1.91 2.38 2.38 0 0 1 1.91-1.042 2.44 2.44 0 0 1 1.209.42c.528-.625 1.283-1.015 2.098-1.083.708-.027 1.4.224 1.925.7.503.524.77 1.23.74 1.956 0 1.466-1.81 3.284-3.92 3.32zm-1.992-3.983a1.08 1.08 0 0 0-.781.413c-.04.064-.145.235.046.618.558 1.004 1.617 1.626 2.765 1.624 1.348-.02 2.615-1.258 2.615-1.99.022-.37-.102-.73-.344-1a1.36 1.36 0 0 0-.973-.318c-.625.01-1.272.767-1.45 1.032l-.417.62-.57-.487a2.15 2.15 0 0 0-.894-.5z"/><use xlink:href="#B"/><use xlink:href="#B" x="-4.647" y="1.992"/><use xlink:href="#B" x="4.646" y="1.992"/><path d="M36.67 49.86h6.637v1.327H36.67zm-1.33-2.656h3.32v1.327h-3.32zm5.975 0h3.32v1.327h-3.32zm8.925-19.178c-1.148-.513-2.367-.852-3.615-1.006v-1.055a1.98 1.98 0 0 0-.518-1.327 1.98 1.98 0 0 0 .518-1.327v-3.32c-.002-1.1-.893-2-1.992-2H35.34a1.99 1.99 0 0 0-1.99 1.99v3.32a1.98 1.98 0 0 0 .517 1.327c-.332.362-.516.836-.518 1.327v1.056a12.7 12.7 0 0 0-3.615 1.007c-3.74 1.87-2.674 5.064-2.324 6.114.477 1.43 3.224 14.4 1.347 18.777a3.7 3.7 0 0 0-.1 3.069 5.09 5.09 0 0 0 3.153 2.468c2.07.7 7.926.7 8.174.7s6.105-.008 8.175-.7a5.09 5.09 0 0 0 3.153-2.468 3.71 3.71 0 0 0-.1-3.069c-1.877-4.38.87-17.348 1.347-18.777.35-1.05 1.414-4.244-2.324-6.114zM34.677 20a.67.67 0 0 1 .194-.47.66.66 0 0 1 .47-.194h9.292a.67.67 0 0 1 .47.194.66.66 0 0 1 .194.47v3.32a.67.67 0 0 1-.194.47.66.66 0 0 1-.47.194h-2V21.32h-5.3v2.655h-2a.67.67 0 0 1-.47-.194.66.66 0 0 1-.194-.47zm6.637 3.982H38.66v-1.327h2.655zm-6.637 1.992a.67.67 0 0 1 .194-.47.66.66 0 0 1 .47-.194h9.292a.67.67 0 0 1 .47.194.66.66 0 0 1 .194.47v.885a52.16 52.16 0 0 0-5.31-.222 52.16 52.16 0 0 0-5.31.222zm16.628 7.755c-.3.875-3.445 14.734-1.308 19.72.32.62.358 1.35.107 2a3.78 3.78 0 0 1-2.362 1.76c-1.548.515-6.123.63-7.754.63s-6.205-.114-7.755-.63c-.994-.24-1.848-.876-2.366-1.758-.25-.65-.212-1.38.107-2 2.137-4.986-1.016-18.845-1.308-19.72-.747-2.24-.265-3.544 1.66-4.506 2.515-1.257 7.705-1.257 9.66-1.257s7.144 0 9.66 1.258c1.924.962 2.4 2.267 1.658 4.506z"/><defs ><path id="B" d="M39.987 35.92a1.99 1.99 0 1 1 0-3.982 1.99 1.99 0 0 1 1.991 1.991c-.002 1.1-.892 1.99-1.99 1.99zm0-2.655c-.27 0-.51.162-.613.4s-.046.534.144.724.476.247.724.144.4-.345.4-.613c0-.367-.297-.664-.664-.664z"/></defs></svg>