<svg xmlns="http://www.w3.org/2000/svg" xmlns:xlink="http://www.w3.org/1999/xlink" width="55.549" height="58.75"><circle cx="25" cy="25" r="25" fill="#fff"/><path d="M50.948 19.972h4.6v18.4h-4.6zm-11.83 17.746H28.6c-1.1-.001-1.97-.883-1.972-1.972V22.6c.001-1.1.883-1.97 1.972-1.972h10.516c1.1.001 1.97.883 1.972 1.972v13.145c-.001 1.1-.883 1.97-1.972 1.972zm0 0" fill="#f7d82f"/><use xlink:href="#B"/><use xlink:href="#B" x="2.629"/><use xlink:href="#B" x="5.258"/><use xlink:href="#B" x="7.887"/><use xlink:href="#B" y="2.629"/><use xlink:href="#B" x="2.629" y="2.629"/><use xlink:href="#B" x="5.258" y="2.629"/><use xlink:href="#B" x="7.887" y="2.629"/><use xlink:href="#B" y="5.258"/><use xlink:href="#B" x="2.629" y="5.258"/><use xlink:href="#B" x="5.258" y="5.258"/><use xlink:href="#B" x="7.887" y="5.258"/><use xlink:href="#B" y="7.887"/><use xlink:href="#B" x="2.629" y="7.887"/><use xlink:href="#B" x="5.258" y="7.887"/><use xlink:href="#B" x="7.887" y="7.887"/><use xlink:href="#B" y="10.516"/><use xlink:href="#B" x="2.629" y="10.516"/><use xlink:href="#B" x="5.258" y="10.516"/><use xlink:href="#B" x="7.887" y="10.516"/><path d="M40.432 18H27.286A3.29 3.29 0 0 0 24 21.286V37.06a3.29 3.29 0 0 0 3.286 3.286H28.6c1.09.001 1.97.883 1.972 1.972V55.35c-.018 1.72 1.26 3.177 2.966 3.384a3.11 3.11 0 0 0 .313.016c.873.002 1.71-.343 2.33-.96s.965-1.453.965-2.326V42.32c.001-1.09.883-1.97 1.972-1.972h1.315a3.29 3.29 0 0 0 3.286-3.286V21.286A3.29 3.29 0 0 0 40.432 18zM42.4 37.06c-.001 1.09-.883 1.97-1.972 1.972h-1.31a3.29 3.29 0 0 0-3.286 3.286v13.145c0 .557-.236 1.088-.65 1.462s-.965.556-1.52.5a2.05 2.05 0 0 1-1.776-2.076V42.32a3.29 3.29 0 0 0-3.287-3.287h-1.314c-1.09-.001-1.97-.883-1.972-1.972V21.286c.002-1.088.884-1.97 1.972-1.97h13.146c1.087.003 1.966.884 1.968 1.97zm0 0"/><use xlink:href="#B" x="3.944" y="31.549"/><path d="M55.548 20.63v-1.314h-3.944C51.603 18.59 51.016 18 50.3 18h-3.944c-.726.001-1.313.59-1.314 1.315v37.463c0 1.09.883 1.972 1.972 1.972s1.972-.883 1.972-1.972v-16.43h1.315c.726-.001 1.314-.59 1.315-1.315h3.944v-1.314h-3.944V36.4h3.944v-1.31h-3.944v-1.315h3.944V32.46h-3.944v-1.315h3.944V29.83h-3.944v-1.315h3.944V27.2h-3.944v-1.313h3.944v-1.314h-3.944v-1.315h3.944v-1.314h-3.944V20.63zM50.3 39.03h-1.315c-.726.001-1.314.59-1.315 1.315v16.434a.66.66 0 0 1-.657.657.66.66 0 0 1-.658-.657V19.315h3.944zm0 0"/><defs ><path id="B" d="M29.258 23.258h1.315v1.315h-1.315zm0 0"/></defs></svg>