<svg xmlns="http://www.w3.org/2000/svg" width="55.549" height="58.75" viewBox="0 0 55.549 58.75">
    <defs>
        <style>
            .cls-1{fill:#fff}.cls-2{fill:#f7d82f}
        </style>
    </defs>
    <g id="Group_86" data-name="Group 86" transform="translate(-564 -818)">
        <circle id="Ellipse_9" cx="25" cy="25" r="25" class="cls-1" data-name="Ellipse 9" transform="translate(564 818)"/>
        <g id="_010-comb" data-name="010-comb" transform="translate(588 836)">
            <path id="Path_86" d="M328 24h4.6v18.4H328zm0 0" class="cls-2" data-name="Path 86" transform="translate(-301.052 -22.028)"/>
            <path id="Path_87" d="M44.488 49.089H33.972A1.974 1.974 0 0 1 32 47.117V33.972A1.974 1.974 0 0 1 33.972 32h10.516a1.974 1.974 0 0 1 1.972 1.972v13.145a1.974 1.974 0 0 1-1.972 1.972zm0 0" class="cls-2" data-name="Path 87" transform="translate(-29.371 -29.371)"/>
            <path id="Path_88" d="M64 64h1.315v1.315H64zm0 0" data-name="Path 88" transform="translate(-58.742 -58.742)"/>
            <path id="Path_89" d="M96 64h1.315v1.315H96zm0 0" data-name="Path 89" transform="translate(-88.113 -58.742)"/>
            <path id="Path_90" d="M128 64h1.315v1.315H128zm0 0" data-name="Path 90" transform="translate(-117.484 -58.742)"/>
            <path id="Path_91" d="M160 64h1.315v1.315H160zm0 0" data-name="Path 91" transform="translate(-146.855 -58.742)"/>
            <path id="Path_92" d="M64 96h1.315v1.315H64zm0 0" data-name="Path 92" transform="translate(-58.742 -88.113)"/>
            <path id="Path_93" d="M96 96h1.315v1.315H96zm0 0" data-name="Path 93" transform="translate(-88.113 -88.113)"/>
            <path id="Path_94" d="M128 96h1.315v1.315H128zm0 0" data-name="Path 94" transform="translate(-117.484 -88.113)"/>
            <path id="Path_95" d="M160 96h1.315v1.315H160zm0 0" data-name="Path 95" transform="translate(-146.855 -88.113)"/>
            <path id="Path_96" d="M64 128h1.315v1.315H64zm0 0" data-name="Path 96" transform="translate(-58.742 -117.484)"/>
            <path id="Path_97" d="M96 128h1.315v1.315H96zm0 0" data-name="Path 97" transform="translate(-88.113 -117.484)"/>
            <path id="Path_98" d="M128 128h1.315v1.315H128zm0 0" data-name="Path 98" transform="translate(-117.484 -117.484)"/>
            <path id="Path_99" d="M160 128h1.315v1.315H160zm0 0" data-name="Path 99" transform="translate(-146.855 -117.484)"/>
            <path id="Path_100" d="M64 160h1.315v1.315H64zm0 0" data-name="Path 100" transform="translate(-58.742 -146.855)"/>
            <path id="Path_101" d="M96 160h1.315v1.315H96zm0 0" data-name="Path 101" transform="translate(-88.113 -146.855)"/>
            <path id="Path_102" d="M128 160h1.315v1.315H128zm0 0" data-name="Path 102" transform="translate(-117.484 -146.855)"/>
            <path id="Path_103" d="M160 160h1.315v1.315H160zm0 0" data-name="Path 103" transform="translate(-146.855 -146.855)"/>
            <path id="Path_104" d="M64 192h1.315v1.315H64zm0 0" data-name="Path 104" transform="translate(-58.742 -176.226)"/>
            <path id="Path_105" d="M96 192h1.315v1.315H96zm0 0" data-name="Path 105" transform="translate(-88.113 -176.226)"/>
            <path id="Path_106" d="M128 192h1.315v1.315H128zm0 0" data-name="Path 106" transform="translate(-117.484 -176.226)"/>
            <path id="Path_107" d="M160 192h1.315v1.315H160zm0 0" data-name="Path 107" transform="translate(-146.855 -176.226)"/>
            <path id="Path_108" d="M16.432 0H3.286A3.29 3.29 0 0 0 0 3.286v15.775a3.29 3.29 0 0 0 3.286 3.286H4.6a1.974 1.974 0 0 1 1.972 1.972v13.032a3.373 3.373 0 0 0 2.966 3.384 3.111 3.111 0 0 0 .313.016 3.286 3.286 0 0 0 3.294-3.286V24.319a1.974 1.974 0 0 1 1.972-1.972h1.315a3.29 3.29 0 0 0 3.286-3.286V3.286A3.29 3.29 0 0 0 16.432 0zM18.4 19.061a1.974 1.974 0 0 1-1.972 1.972h-1.311a3.29 3.29 0 0 0-3.286 3.286v13.145a1.973 1.973 0 0 1-2.168 1.963 2.05 2.05 0 0 1-1.776-2.076V24.319A3.29 3.29 0 0 0 4.6 21.032H3.286a1.974 1.974 0 0 1-1.972-1.972V3.286a1.974 1.974 0 0 1 1.972-1.971h13.146A1.974 1.974 0 0 1 18.4 3.286zm0 0" data-name="Path 108"/>
            <path id="Path_109" d="M112 448h1.315v1.315H112zm0 0" data-name="Path 109" transform="translate(-102.798 -411.193)"/>
            <path id="Path_110" d="M266.516 2.629V1.315h-3.944A1.316 1.316 0 0 0 261.258 0h-3.944A1.316 1.316 0 0 0 256 1.315v37.463a1.972 1.972 0 0 0 3.944 0V22.347h1.315a1.316 1.316 0 0 0 1.315-1.315h3.944v-1.314h-3.944V18.4h3.944v-1.311h-3.944v-1.315h3.944V14.46h-3.944v-1.315h3.944v-1.314h-3.944v-1.315h3.944V9.2h-3.944V7.887h3.944V6.573h-3.944V5.258h3.944V3.944h-3.944V2.629zm-5.258 18.4h-1.315a1.316 1.316 0 0 0-1.315 1.315v16.434a.657.657 0 0 1-1.315 0V1.315h3.944zm0 0" data-name="Path 110" transform="translate(-234.968)"/>
        </g>
    </g>
</svg>
