<svg xmlns="http://www.w3.org/2000/svg" width="58.331" height="61.188"><circle cx="25" cy="25" r="25" fill="#fff"/><path d="M38.012 20.188h-2.646a1.99 1.99 0 0 0-1.985 1.985v22.494h1.323V41.36h3.97v3.308h1.323V22.173a1.99 1.99 0 0 0-1.985-1.985zm-2.425 5.954l-.883.662V25.48zm-.442-1.984h3.088l-1.544 1.157zm1.544 2.812l1.544 1.158-1.544 1.16-1.544-1.16zm-1.1 3.143l-.883.662V29.45zm1.1.827l1.544 1.158-1.544 1.158-1.544-1.158zm-1.1 3.143l-.883.662V33.42zm1.1.827l1.544 1.158-1.544 1.158-1.544-1.158zm-1.1 3.143l-.883.662v-1.327zm1.1.827l1.544 1.158h-3.088zm1.1-.827l.883-.662v1.323zm0-3.97l.883-.662v1.323zm0-3.97l.883-.662v1.323zm0-3.97l.883-.662v1.323zm-2.423-4.632h2.646a.66.66 0 0 1 .662.662v.662h-3.97v-.662a.66.66 0 0 1 .662-.662zm20.26 15.2v3.308h-3.97V36.7h-1.323v18.208a3.31 3.31 0 0 0 .8 2.152l3.062 3.572a1.57 1.57 0 0 0 2.758-1.021V36.7zm-3.087 6.616l-.883.662v-1.323zm-.442-1.985h3.088L53.642 42.5zm1.544 2.812l1.544 1.158-1.544 1.158-1.544-1.158zm-1.1 3.143l-.883.662v-1.323zm1.1.827l1.544 1.158-1.544 1.158-1.544-1.158zm-1.1 3.143l-.883.662v-1.323zm1.1.827l1.544 1.158h-3.088zm1.1-.827l.883-.662v1.323zm0-3.97l.883-.662v1.323zm0-3.97l.883-.662v1.323zm.452 16.455l-3.06-3.57a1.99 1.99 0 0 1-.478-1.291v-.345h3.97v5.048c-.01.097-.073.18-.165.215s-.195.012-.265-.056z"/><path d="M36.7 61.186a3.56 3.56 0 0 1-3.525-3.244l-1.168-13.956h9.378L40.2 57.944a3.56 3.56 0 0 1-3.521 3.242zm21.642-23.798H48.95l1.164-13.958a3.54 3.54 0 0 1 7.05 0z" fill="#f7d82f"/></svg>