<svg xmlns="http://www.w3.org/2000/svg" width="62.053" height="59.398"><circle cx="25" cy="25" r="25" fill="#fff"/><path d="M46.7 35.825v-2.7c-.001-.433-.14-.853-.4-1.2l-1.47-1.958a.67.67 0 0 1-.134-.4v-1.56a2 2 0 0 0-1.335-1.88V23.34h-1.34V20c-.003-1.103-.897-1.997-2-2h-5.345c-1.103.003-1.997.897-2 2v3.34H31.34v2.794A2 2 0 0 0 30 28.015v1.558a.67.67 0 0 1-.134.4l-1.466 1.96a2 2 0 0 0-.4 1.2v22.48c.001.433.14.853.4 1.2l1.336 1.787c.38.502.97.798 1.6.8h12.02a2.01 2.01 0 0 0 1.6-.8l1.343-1.784a2 2 0 0 0 .4-1.2v-8.7h-1.34v7.142H42.7v1.335h2.67v.222a.67.67 0 0 1-.134.4L43.9 57.8a.67.67 0 0 1-.534.267H31.34a.67.67 0 0 1-.539-.267l-1.33-1.785a.67.67 0 0 1-.134-.4v-.222h12.02v-1.337h-12.02v-20.03h12.02V32.7H29.5l1.436-1.914a2 2 0 0 0 .4-1.2v-1.56a.67.67 0 0 1 .668-.668H42.7a.67.67 0 0 1 .668.668v1.558c.001.433.14.853.4 1.2l1.435 1.914h-2.5v1.335h2.67v1.8zM34 20a.67.67 0 0 1 .668-.668h5.342a.67.67 0 0 1 .668.668v.668H34zm0 6h-1.335v-1.332H34zm0-4.006h6.677v1.338H34zm2.67 4h-1.335V24.68h1.335zm2.67 0h-1.335V24.68h1.335zm2.67 0h-1.335V24.68h1.335zm-4.672 26.708c-3.216 0-6.677-.836-6.677-2.67 0-1.75 3.045-2.345 4.354-2.52l.178 1.323c-2.4.32-3.2 1.034-3.2 1.2 0 .343 1.836 1.335 5.342 1.335s5.342-.992 5.342-1.335c0-.163-.8-.876-3.2-1.2l.178-1.323c1.308.175 4.353.77 4.353 2.52 0 1.835-3.462 2.67-6.677 2.67zm0 0"/><path d="M37.38 50.052h-.065c-1.18 0-2.268-.627-2.86-1.646s-.596-2.276-.01-3.3l2.9-5.08 2.9 5.08a3.31 3.31 0 0 1-.01 3.3 3.3 3.3 0 0 1-2.86 1.647zm15.325.67a9.35 9.35 0 1 1 9.348-9.348 9.36 9.36 0 0 1-9.348 9.348zm0 0" fill="#f7d82f"/><path d="M36.68 35.36h1.335v1.335H36.68zm0 2.67h1.335v1.335H36.68zm16.022 1.336a2 2 0 1 1 2-2c-.003 1.103-.897 1.997-2 2zm0-2.67a.67.67 0 1 0 .668.668.67.67 0 0 0-.668-.668zm-4.246 4.43a2 2 0 1 1 1.417-.586 2 2 0 0 1-1.417.586zm0-2.67c-.318.001-.592.226-.653.54s.107.624.4.745a.67.67 0 0 0 .81-.248c.177-.265.14-.618-.085-.842a.66.66 0 0 0-.472-.194zm8.5 2.67a2 2 0 1 1 1.416-.586 2 2 0 0 1-1.416.586zm0-2.67c-.318.001-.592.226-.653.54s.107.624.4.745a.67.67 0 0 0 .81-.248c.177-.265.14-.618-.085-.842a.66.66 0 0 0-.472-.194zm-4.25 8.925c-2.62 0-4.674-1.466-4.674-3.34s2.053-3.338 4.674-3.338 4.674 1.466 4.674 3.34-2.053 3.338-4.674 3.338zm0-5.342c-1.8 0-3.34.917-3.34 2s1.53 2 3.34 2 3.34-.917 3.34-2-1.53-2-3.34-2zm0 0"/></svg>