<svg xmlns="http://www.w3.org/2000/svg" width="62" height="61.053"><circle cx="25" cy="25" r="25" fill="#fff"/><path d="M27.613 39.866h-3.97l.054-.7c.72-8.742 7.658-15.68 16.4-16.4l.7-.054v3.958l-.6.054a13.84 13.84 0 0 0-12.544 12.552zm13.2 18.542l-.7-.054c-8.742-.72-15.68-7.658-16.4-16.4l-.058-.714h3.97l.054.6a13.84 13.84 0 0 0 12.546 12.549l.6.054zm1.374 0v-3.97l.6-.054a13.84 13.84 0 0 0 12.549-12.546l.054-.6h3.965l-.054.7c-.72 8.742-7.658 15.68-16.4 16.4zm17.168-18.542h-3.97l-.054-.6a13.84 13.84 0 0 0-12.546-12.548l-.6-.06v-3.96l.7.054c8.742.72 15.68 7.658 16.4 16.4zm0 0" fill="#f7d82f"/><path d="M43.482 20.053H39.52v8.586h3.963zm-1.32 7.265h-1.32v-5.944h1.32zM21 42.535h8.586v-3.963H21zm1.32-2.642h5.944v1.32H22.32zm17.2 21.16h3.963v-8.586H39.52zm1.32-7.265h1.32v5.944h-1.32zm12.574-15.216v3.963H62v-3.963zm7.265 2.642h-5.944v-1.32h5.944zm0 0"/><path d="M48.105 38.567h-1.98V37.24h-1.32v-.662a3.31 3.31 0 0 0-2.126-3.084 7.03 7.03 0 0 1 3.607-2.233l-.32-1.285c-1.76.446-3.327 1.454-4.463 2.87a8.34 8.34 0 0 0-4.463-2.87l-.32 1.285a7.03 7.03 0 0 1 3.607 2.233 3.31 3.31 0 0 0-2.126 3.084v.662h-1.324v1.324h-1.98V36.58h-1.32v3.3h3.3v1.324h-3.3v1.325h3.3a9.65 9.65 0 0 0 .115 1.324h-3.426v3.3h1.32V45.2h2.4c.636 2.12 2 3.953 3.827 5.186l.367.245.367-.245c1.838-1.233 3.2-3.066 3.827-5.186h2.4v1.986h1.32v-3.3H46c.07-.438.107-.88.115-1.324h3.312v-1.324h-3.3v-1.324h3.3V36.58h-1.322zM39.52 36.58a1.981 1.981 0 1 1 3.963 0v.662H39.52zm1.98 3.037l-1.047-1.05h2.095zM38.2 42.4v-3.833h.387l2.255 2.26v7.627a8.25 8.25 0 0 1-2.644-6.056zm6.6 0a8.25 8.25 0 0 1-2.642 6.055V40.83l2.255-2.26h.387zm3.314-8.46h1.32v1.32h-1.32zm-14.55 0h1.32v1.32h-1.32zm-2.645 7.275h1.32v1.32h-1.32zm0 0"/><path d="M33.565 48.5h1.32v1.32h-1.32zm17.195-7.285h1.32v1.32h-1.32zM48.114 48.5h1.32v1.32h-1.32zm0 0"/></svg>