<svg xmlns="http://www.w3.org/2000/svg" width="65.32" height="59.857"><circle cx="25" cy="25" r="25" fill="#fff"/><path d="M53.172 44.848l1.303-1.303.93.93-1.303 1.303zM47.9 50.126l3.942-3.942.93.93-3.942 3.942zm-12.727-17.58l-.926-.934.876-.87.924.938zm1.8-1.8l-.928-.935.934-.928.928.935zm1.864-1.855l-.928-.935.934-.928.928.935z"/><path d="M42.097 51.913H26.954c-1.095 0-2.076-.678-2.463-1.703s-.1-2.182.723-2.906c-.822-.724-1.1-1.88-.723-2.906s1.368-1.703 2.463-1.703h15.143a4.61 4.61 0 0 1 4.609 4.609 4.61 4.61 0 0 1-4.609 4.609z" fill="#f7d82f"/><path d="M46.706 37.294c-.001-1.454-1.18-2.633-2.634-2.634H29.22l13.234-13.152-.928-.934-14.3 14.2c-.113.113-.215.234-.317.355-1.933.936-2.963 3.083-2.482 5.176s2.345 3.576 4.493 3.574h15.144c1.095 0 2.076-.678 2.463-1.703a2.63 2.63 0 0 0-.723-2.906 2.63 2.63 0 0 0 .893-1.975zm-2.633 2.634c.727 0 1.317.6 1.317 1.317a1.33 1.33 0 0 1-1.317 1.317H28.93c-1.818 0-3.292-1.474-3.292-3.292s1.474-3.292 3.292-3.292h15.144c.727 0 1.317.6 1.317 1.317a1.33 1.33 0 0 1-1.317 1.317H28.27v1.316zm15.82 3.902l-.936-.93L47.1 54.707a4.09 4.09 0 0 1-1 .728l-.172-.186a2.63 2.63 0 0 0-1.749-4.609H28.952a4.61 4.61 0 0 0-3.992 6.914 4.61 4.61 0 0 0 3.992 2.304h15.22c1.458.003 2.642-1.175 2.648-2.633a2.61 2.61 0 0 0-.085-.639 5.4 5.4 0 0 0 1.292-.947zm-15.72 12.077c.727 0 1.317.6 1.317 1.317a1.33 1.33 0 0 1-1.317 1.317h-15.22c-1.818 0-3.292-1.474-3.292-3.292s1.474-3.292 3.292-3.292h15.22c.727 0 1.317.6 1.317 1.317a1.33 1.33 0 0 1-1.317 1.317H28.3v1.317zm-19.194-9.27h18.436v1.317H24.978z"/><path d="M59.04 43.878c-.792.002-1.553-.312-2.112-.874L41.857 27.93c-1.356-1.34-1.9-3.303-1.4-5.145s1.928-3.28 3.77-3.77 3.805.045 5.145 1.4l15.073 15.073c.856.854 1.113 2.14.65 3.256s-1.553 1.845-2.762 1.844c-.108 0-.216-.006-.323-.017a3.1 3.1 0 0 1 .017.323 2.99 2.99 0 0 1-2.987 2.986z" fill="#f7d82f"/><path d="M44.11 23.607l.93-.93 17.45 17.45-.93.93z"/></svg>