<svg xmlns="http://www.w3.org/2000/svg" xmlns:xlink="http://www.w3.org/1999/xlink" width="65" height="59.621"><circle cx="25" cy="25" r="25" fill="#fff"/><path d="M30.247 49.015a6.25 6.25 0 0 1-4.421-10.665l.922-.922a5.43 5.43 0 0 1 7.681 0l2.193 2.193 11.525-6.86.674 1.132-12.406 7.385L33.5 38.36a4.12 4.12 0 0 0-2.91-1.205c-1.092 0-2.137.433-2.908 1.205l-.922.922a4.93 4.93 0 0 0 6.177 7.615l10.4-6.794.72 1.1-10.4 6.794c-1.013.663-2.197 1.016-3.408 1.015zm21.366-12.73l-.72-1.1 7.914-5.17a16.19 16.19 0 0 0 4.849-4.947l-8.33 4.96-.673-1.133L65 22.736v2.66l-.1.158a17.51 17.51 0 0 1-5.378 5.566zm0 0"/><path d="M45.403 46.952L62.21 18.62h-2.66l-.158.1a17.54 17.54 0 0 0-5.566 5.4l-16.8 25.816a6.27 6.27 0 0 0 5.218 9.684h.023a6.18 6.18 0 0 0 4.408-1.832l.922-.926c2.12-2.132 2.12-5.577 0-7.71zm-2.8 9.362c-1.338.005-2.547-.798-3.063-2.033s-.236-2.66.71-3.607 2.367-1.233 3.604-.722 2.044 1.717 2.044 3.055a3.3 3.3 0 0 1-3.299 3.307zm0 0" fill="#f7d82f"/><use xlink:href="#B"/><use xlink:href="#B" x="11.926" y="10.602"/><defs ><path id="B" d="M30.588 46.383c-2.183 0-3.953-1.77-3.953-3.953s1.77-3.953 3.953-3.953 3.953 1.77 3.953 3.953a3.96 3.96 0 0 1-3.953 3.953zm0-6.59c-1.066 0-2.027.642-2.434 1.627s-.182 2.118.57 2.872 1.887.98 2.872.57 1.627-1.37 1.627-2.434a2.64 2.64 0 0 0-2.635-2.634zm0 0"/></defs></svg>