<svg xmlns="http://www.w3.org/2000/svg" xmlns:xlink="http://www.w3.org/1999/xlink" width="62.201" height="59"><circle cx="25" cy="25" r="25" fill="#fff"/><path d="M8 42.053a12.31 12.31 0 0 1 2.62-13.576l.47-.468a2.25 2.25 0 0 1 3.84 1.588v.1c-.001.51-.175 1.002-.493 1.4l-.8 1a7.21 7.21 0 0 0-1.069 7.194l.722 1.8.184-.076a33.99 33.99 0 0 0 13.477-7.31l.357-.316c-.08-.33-.122-.667-.123-1.006V30.2a3.19 3.19 0 0 1-2.884-3.165c.001-2.276.596-4.512 1.726-6.487.786-1.37 2.164-2.295 3.73-2.504s3.138.322 4.256 1.437l.38.38c1.88-.565 3.882-.565 5.76 0l.38-.38c1.118-1.115 2.69-1.647 4.256-1.437s2.943 1.135 3.73 2.504c1.13 1.975 1.725 4.21 1.726 6.487a3.19 3.19 0 0 1-2.887 3.165v2.2c-.008 2.383-1.94 4.3-4.324 4.3v-1.437c1.6 0 2.88-1.287 2.883-2.877V29.51a8.65 8.65 0 0 0-17.3 0v2.877c.003 1.6 1.293 2.877 2.883 2.877V36.7c-1.446.002-2.797-.72-3.6-1.922-4.026 3.565-8.812 6.164-13.994 7.6C10.63 43.6 8.45 46.71 8.438 50.205a8.28 8.28 0 0 0 2.447 5.9 4.94 4.94 0 0 0 3.515 1.457h12.058a1.44 1.44 0 0 0 1.278-2.169 1.44 1.44 0 0 0-1.278-.708H19.25v-1.44h3.6v-1.388c.008-3.07-1.214-6.013-3.392-8.174l1.02-1.017c2.08 2.068 3.394 4.784 3.722 7.7h2.528a16.44 16.44 0 0 0 4.051-.516v-3.8h1.44v10.79a.72.72 0 0 0 .721.719h4.767a1 1 0 0 0 .369-1.921L35.1 54.45v-.815c-.001-1.298.233-2.585.7-3.8.974-2.59 1.473-5.333 1.472-8.1H38.7a24.37 24.37 0 0 1-.279 3.654 9.98 9.98 0 0 0 2.441-6.531h1.44a11.44 11.44 0 0 1-.752 4.05c-.12 2.543-.637 5.052-1.532 7.436-.38 1.002-.582 2.06-.6 3.132l2.07.823c1.1.43 1.72 1.575 1.497 2.726s-1.232 1.98-2.403 1.974h-7.65c-1.192-.001-2.16-.966-2.162-2.158v-5.508c-1.328.312-2.687.47-4.05.473h-2.438v1.44h2.162c1.028 0 1.978.548 2.492 1.438s.514 1.987 0 2.877S27.483 59 26.455 59H14.4a6.37 6.37 0 0 1-4.53-1.873c-3.457-3.436-3.836-8.9-.886-12.78zm39.32-13.29c.85-.134 1.477-.866 1.48-1.727-.001-2.025-.53-4.014-1.536-5.772a3.62 3.62 0 0 0-5.641-.824c3.252 1.555 5.426 4.73 5.7 8.323zM32.914 20.44a3.62 3.62 0 0 0-5.641.824c-1.006 1.758-1.535 3.747-1.536 5.772.003.86.63 1.592 1.48 1.726.274-3.593 2.446-6.767 5.697-8.322zm6.814 25.65a11.52 11.52 0 0 1-1.549 1.581c-.084.07-.17.137-.256.205-.216.836-.475 1.66-.777 2.47-.38 1.002-.582 2.06-.6 3.132l1.44.575v-.417c-.001-1.298.233-2.585.7-3.8s.806-2.473 1.05-3.75zm1.865 10.475a.99.99 0 0 0-.628-.925l-1.29-.515a2.42 2.42 0 0 1 .476 1.44 2.4 2.4 0 0 1-.219 1h.663a1 1 0 0 0 1-1zM11.98 41.713l-.756-1.884a8.65 8.65 0 0 1 1.282-8.629l.8-1a.81.81 0 0 0 .177-.5v-.1a.81.81 0 0 0-1.379-.57l-.47.468A10.88 10.88 0 0 0 9.32 41.491l.718 1.672c.584-.56 1.235-1.045 1.938-1.446zm0 0"/><use xlink:href="#B"/><use xlink:href="#B" x="8.65"/><path d="M34.444 39.535h5.715c1.972-.002 3.57-1.6 3.572-3.572a6.43 6.43 0 0 0-9.644-5.568 6.43 6.43 0 0 0-3.214 5.568c.002 1.97 1.6 3.57 3.57 3.572zm0 0" fill="#f7d82f"/><path d="M36.565 34.232v-.55c-.984-.348-1.574-1.354-1.398-2.383a2.14 2.14 0 0 1 2.112-1.78c1.044 0 1.936.752 2.112 1.78s-.414 2.035-1.398 2.383v.55l1.934 1.934-1 1-1.638-1.638-1.638 1.638-1-1zm.714-3.276c-.3 0-.55.174-.66.44s-.05.574.155.778.5.265.778.155a.71.71 0 0 0 .44-.66c-.001-.393-.32-.712-.713-.714zm23.416 19.327l-1.374-.687a3.83 3.83 0 0 0-1.705-.4H51.85a3.6 3.6 0 0 0-1.21 4.9 4.54 4.54 0 0 1-.425 3.269c.001.903.732 1.634 1.635 1.635h5.767a3.83 3.83 0 0 0 1.705-.4l1.374-.687H62.2v-7.628zm-6.142 4.8a.59.59 0 0 1 .02.094c-.001.3-.244.544-.545.545h-2.18c-.3 0-.545-.244-.545-.545s.244-.545.545-.545h.97c.43.494 1.12.673 1.734.45zm-3.25-2.085c0-.3.244-.545.545-.545h.545v1.1h-.545c-.3 0-.545-.244-.545-.545zm.545-2.724h.645a1.62 1.62 0 0 0-.1.545v.545h-.545c-.195 0-.375-.104-.472-.272s-.097-.376 0-.545a.54.54 0 0 1 .472-.272zm1.1 7.628h-1.1c-.3 0-.545-.244-.545-.545s.244-.545.545-.545h2.18c.3 0 .545.244.545.545s-.244.545-.545.545zm8.173-1.1h-.674l-1.6.8a2.74 2.74 0 0 1-1.218.288h-2.053c-.5-.85-.46-1.913.1-2.724-.305-.502-.305-1.133 0-1.635v-1.1h.873c.78.705 1.796 1.093 2.848 1.1h.093v-1.1h-.094c-.843.002-1.65-.332-2.245-.93l-.16-.16h-2.42v2.178c0 .3-.244.545-.545.545s-.545-.244-.545-.545v-2.72c0-.3.244-.545.545-.545h3.587a2.75 2.75 0 0 1 1.218.288l1.6.8h.674zm0 0"/><path d="M54.028 32.302h-1.1c-.903.001-1.634.732-1.635 1.635v8.943l1.1 1.1v5.223h3.266V33.937c-.001-.903-.732-1.634-1.635-1.635zm0 0" fill="#f7d82f"/><defs ><path id="B" d="M32.232 26.628c0 .29.174.55.44.66s.574.05.778-.155.265-.51.155-.778-.37-.44-.66-.44c-.394 0-.714.32-.714.714zm0 0"/></defs></svg>