<svg xmlns="http://www.w3.org/2000/svg" width="58.997" height="56.695" viewBox="0 0 58.997 56.695">
    <defs>
        <style>
            .cls-1{fill:#fff}.cls-2{fill:#f7d82f}
        </style>
    </defs>
    <g id="Group_86" data-name="Group 86" transform="translate(-564 -818)">
        <circle id="Ellipse_9" cx="25" cy="25" r="25" class="cls-1" data-name="Ellipse 9" transform="translate(564 818)"/>
        <g id="cotton-bud" transform="translate(582 833.695)">
            <path id="Path_214" d="M111.774 305.309l-4.8 4.465-2.58-2.58 4.465-4.8zm0 0" class="cls-2" data-name="Path 214" transform="translate(-95.769 -277.403)"/>
            <path id="Path_215" d="M33.967 75.289l-6.15 6.831-1.8-1.8 6.832-6.149-.885-.983-11.525 10.377c-.695.624-1.388 1.282-2.06 1.955s-1.331 1.365-1.947 2.053L.56 104.634a2.084 2.084 0 0 0 2.945 2.947L20.56 91.716a53.79 53.79 0 0 0 4.014-4.015l10.375-11.527zm-7.035 7.816l-.994 1.1-2.007-2.005 1.1-.993zm-9.1 4.9q.5-.543 1.02-1.076l2.359 2.359q-.533.519-1.076 1.021zm1.955-2.012q.534-.521 1.076-1.021l2.3 2.3q-.5.544-1.02 1.077zm-2.855 2.983l2.232 2.232-1.087 1.011-2.156-2.156zm.176 4.144l-1.086 1.011-2.012-2.013 1.011-1.087zM2.6 106.613a.755.755 0 0 1-.519.2.764.764 0 0 1-.762-.762.756.756 0 0 1 .205-.52l11.585-12.444 1.945 1.946zM24.059 86.3l-2.216-2.216 1.1-.993 2.105 2.105zm0 0" data-name="Path 215" transform="translate(0 -67.14)"/>
            <path id="Path_216" d="M386.646 9.26a2.609 2.609 0 0 1-1.9-.717c-1.366-1.366-.717-4.155 1.476-6.35A6.761 6.761 0 0 1 390.682 0a2.608 2.608 0 0 1 1.895.717c1.365 1.366.717 4.155-1.476 6.35a6.761 6.761 0 0 1-4.455 2.193zm0 0" class="cls-2" data-name="Path 216" transform="translate(-352.293)"/>
        </g>
    </g>
</svg>
