<svg xmlns="http://www.w3.org/2000/svg" width="52.975" height="59.152" viewBox="0 0 52.975 59.152">
    <defs>
        <style>
            .cls-1{fill:#fff}.cls-2{fill:#f7d82f}
        </style>
    </defs>
    <g id="Group_86" data-name="Group 86" transform="translate(-564 -818)">
        <circle id="Ellipse_9" cx="25" cy="25" r="25" class="cls-1" data-name="Ellipse 9" transform="translate(564 818)"/>
        <g id="_003-bath" data-name="003-bath" transform="translate(578.567 835)">
            <path id="Path_27" d="M27.5 43.22h-.242c-2.05.033-5.568-.358-6.8-1.57a1.5 1.5 0 0 1-.492-1.083 119.89 119.89 0 0 0-1.98-17.136 4.758 4.758 0 0 1 2.358-4.7A11.775 11.775 0 0 1 25.655 18c.514 0 1.048.009 1.6 0h.021c.558.009 1.091 0 1.6 0a11.764 11.764 0 0 1 5.307.728 4.758 4.758 0 0 1 2.358 4.7 119.89 119.89 0 0 0-1.98 17.136 1.5 1.5 0 0 1-.492 1.083C32.9 42.814 29.591 43.22 27.5 43.22z" class="cls-2" data-name="Path 27" transform="translate(-1.85 -5.714)"/>
            <path id="Path_28" d="M29.892 35.974a4.432 4.432 0 0 1-3.913-2.359 1.908 1.908 0 0 1 .012-1.91 2.382 2.382 0 0 1 1.91-1.042 2.44 2.44 0 0 1 1.209.42A3.083 3.083 0 0 1 31.208 30a2.715 2.715 0 0 1 1.925.7 2.667 2.667 0 0 1 .74 1.956c0 1.466-1.809 3.284-3.921 3.319zM27.9 31.991a1.082 1.082 0 0 0-.781.413c-.04.064-.145.235.046.618a3.157 3.157 0 0 0 2.765 1.624c1.348-.021 2.615-1.258 2.615-1.991a1.414 1.414 0 0 0-.344-1.01 1.358 1.358 0 0 0-.973-.318c-.625.01-1.272.767-1.45 1.032l-.417.621-.569-.487a2.15 2.15 0 0 0-.894-.5z" data-name="Path 28" transform="translate(-4.471 -9.752)"/>
            <path id="Path_29" d="M30.991 25.982a1.991 1.991 0 1 1 1.991-1.991 1.994 1.994 0 0 1-1.991 1.991zm0-2.655a.664.664 0 1 0 .664.664.664.664 0 0 0-.664-.664z" data-name="Path 29" transform="translate(-5.571 -7.062)"/>
            <path id="Path_30" d="M23.991 28.982a1.991 1.991 0 1 1 1.991-1.991 1.994 1.994 0 0 1-1.991 1.991zm0-2.655a.664.664 0 1 0 .664.664.664.664 0 0 0-.664-.664z" data-name="Path 30" transform="translate(-3.217 -8.07)"/>
            <path id="Path_31" d="M37.991 28.982a1.991 1.991 0 1 1 1.991-1.991 1.994 1.994 0 0 1-1.991 1.991zm0-2.655a.664.664 0 1 0 .664.664.664.664 0 0 0-.664-.664z" data-name="Path 31" transform="translate(-7.925 -8.07)"/>
            <path id="Path_32" d="M27 49h6.637v1.327H27z" data-name="Path 32" transform="translate(-4.898 -16.141)"/>
            <path id="Path_33" d="M25 45h3.319v1.327H25z" data-name="Path 33" transform="translate(-4.226 -14.796)"/>
            <path id="Path_34" d="M34 45h3.319v1.327H34z" data-name="Path 34" transform="translate(-7.252 -14.796)"/>
            <path id="Path_35" d="M35.673 11.026a12.684 12.684 0 0 0-3.615-1.006V8.965a1.978 1.978 0 0 0-.518-1.327 1.978 1.978 0 0 0 .518-1.327v-3.32A1.994 1.994 0 0 0 30.066 1h-9.292a1.994 1.994 0 0 0-1.991 1.991V6.31a1.978 1.978 0 0 0 .517 1.327 1.975 1.975 0 0 0-.518 1.327v1.056a12.683 12.683 0 0 0-3.615 1.007c-3.739 1.869-2.674 5.064-2.324 6.114.477 1.429 3.224 14.4 1.347 18.777a3.7 3.7 0 0 0-.1 3.069 5.092 5.092 0 0 0 3.153 2.468c2.069.69 7.926.7 8.174.7s6.105-.008 8.175-.7a5.092 5.092 0 0 0 3.153-2.468 3.709 3.709 0 0 0-.1-3.069c-1.877-4.38.871-17.348 1.347-18.777.35-1.05 1.414-4.244-2.324-6.114zM20.11 2.991a.664.664 0 0 1 .664-.664h9.292a.664.664 0 0 1 .664.664V6.31a.664.664 0 0 1-.664.664h-1.991V4.319h-5.31v2.655h-1.991a.664.664 0 0 1-.664-.664zm6.637 3.982h-2.654V5.646h2.655zM20.11 8.965a.664.664 0 0 1 .664-.664h9.292a.664.664 0 0 1 .664.664v.885a52.159 52.159 0 0 0-5.31-.222 52.16 52.16 0 0 0-5.31.222zm16.628 7.755c-.291.875-3.445 14.734-1.308 19.72a2.446 2.446 0 0 1 .107 2 3.774 3.774 0 0 1-2.362 1.76c-1.548.515-6.123.629-7.754.629s-6.205-.114-7.755-.629a3.776 3.776 0 0 1-2.366-1.758 2.446 2.446 0 0 1 .107-2c2.137-4.986-1.016-18.845-1.308-19.72-.747-2.239-.265-3.544 1.659-4.506 2.515-1.257 7.705-1.257 9.659-1.257s7.144 0 9.659 1.258c1.924.962 2.4 2.267 1.658 4.506z" data-name="Path 35"/>
        </g>
    </g>
</svg>
