<svg xmlns="http://www.w3.org/2000/svg" width="62" height="61.053" viewBox="0 0 62 61.053">
    <defs>
        <style>
            .cls-1{fill:#fff}.cls-2{fill:#f7d82f}
        </style>
    </defs>
    <g id="Group_86" data-name="Group 86" transform="translate(-564 -818)">
        <circle id="Ellipse_9" cx="25" cy="25" r="25" class="cls-1" data-name="Ellipse 9" transform="translate(564 818)"/>
        <g id="_017-virus" data-name="017-virus" transform="translate(585 838.053)">
            <g id="Group_84" data-name="Group 84" transform="translate(2.644 2.645)">
                <path id="Path_172" d="M36 49.207h-3.969l.054-.711a17.931 17.931 0 0 1 16.4-16.4l.711-.054V36l-.6.054a13.84 13.84 0 0 0-12.544 12.552zm0 0" class="cls-2" data-name="Path 172" transform="translate(-32.031 -32.039)"/>
                <path id="Path_173" d="M49.2 273.168l-.711-.054a17.931 17.931 0 0 1-16.4-16.4l-.058-.714H36l.054.6A13.84 13.84 0 0 0 48.6 269.149l.6.054zm0 0" class="cls-2" data-name="Path 173" transform="translate(-32.031 -237.458)"/>
                <path id="Path_174" d="M256 273.169V269.2l.6-.054a13.84 13.84 0 0 0 12.549-12.546l.054-.6h3.965l-.054.711a17.931 17.931 0 0 1-16.4 16.4zm0 0" class="cls-2" data-name="Path 174" transform="translate(-237.457 -237.459)"/>
                <path id="Path_175" d="M273.169 49.207H269.2l-.054-.6A13.84 13.84 0 0 0 256.6 36.059L256 36v-3.961l.711.054a17.931 17.931 0 0 1 16.4 16.4zm0 0" class="cls-2" data-name="Path 175" transform="translate(-237.458 -32.039)"/>
            </g>
            <path id="Path_176" d="M227.963 0H224v8.586h3.963zm-1.321 7.265h-1.321V1.321h1.321zm0 0" data-name="Path 176" transform="translate(-205.481)"/>
            <path id="Path_177" d="M0 227.963h8.586V224H0zm1.321-2.642h5.944v1.321H1.321zm0 0" data-name="Path 177" transform="translate(0 -205.481)"/>
            <path id="Path_178" d="M224 400.586h3.963V392H224zm1.321-7.265h1.321v5.944h-1.321zm0 0" data-name="Path 178" transform="translate(-205.481 -359.586)"/>
            <path id="Path_179" d="M392 224v3.963h8.586V224zm7.265 2.642h-5.944v-1.321h5.944zm0 0" data-name="Path 179" transform="translate(-359.586 -205.481)"/>
            <path id="Path_180" d="M166.53 128.826h-1.981V127.5h-1.321v-.662a3.308 3.308 0 0 0-2.126-3.084 7.026 7.026 0 0 1 3.607-2.233l-.32-1.285a8.347 8.347 0 0 0-4.463 2.871 8.345 8.345 0 0 0-4.463-2.871l-.32 1.285a7.027 7.027 0 0 1 3.607 2.233 3.309 3.309 0 0 0-2.126 3.084v.662H155.3v1.324h-1.981v-1.984H152v3.311h3.3v1.324H152v1.325h3.311a9.651 9.651 0 0 0 .115 1.324H152v3.311h1.321v-1.986h2.411a9.547 9.547 0 0 0 3.827 5.186l.367.245.367-.245a9.547 9.547 0 0 0 3.827-5.186h2.411v1.986h1.321v-3.311h-3.427a9.554 9.554 0 0 0 .115-1.324h3.312v-1.324h-3.3v-1.324h3.3v-3.312h-1.322zm-8.586-1.986a1.981 1.981 0 1 1 3.963 0v.662h-3.963zm1.981 3.037l-1.047-1.05h2.095zm-3.3 2.783v-3.833h.387l2.255 2.261v7.627a8.248 8.248 0 0 1-2.644-6.056zm6.6 0a8.248 8.248 0 0 1-2.642 6.055v-7.627l2.255-2.261h.387zm0 0" data-name="Path 180" transform="translate(-139.425 -110.312)"/>
            <path id="Path_181" d="M328 168h1.321v1.321H328zm0 0" data-name="Path 181" transform="translate(-300.886 -154.112)"/>
            <path id="Path_182" d="M152 168h1.321v1.321H152zm0 0" data-name="Path 182" transform="translate(-139.435 -154.112)"/>
            <path id="Path_183" d="M120 256h1.321v1.321H120zm0 0" data-name="Path 183" transform="translate(-110.08 -234.838)"/>
            <path id="Path_184" d="M152 344h1.321v1.321H152zm0 0" data-name="Path 184" transform="translate(-139.435 -315.563)"/>
            <path id="Path_185" d="M360 256h1.321v1.321H360zm0 0" data-name="Path 185" transform="translate(-330.241 -234.838)"/>
            <path id="Path_186" d="M328 344h1.321v1.321H328zm0 0" data-name="Path 186" transform="translate(-300.886 -315.563)"/>
        </g>
    </g>
</svg>
