<svg xmlns="http://www.w3.org/2000/svg" width="65" height="59.621" viewBox="0 0 65 59.621">
    <defs>
        <style>
            .cls-1{fill:#fff}.cls-2{fill:#f7d82f}
        </style>
    </defs>
    <g id="Group_86" data-name="Group 86" transform="translate(-564 -818)">
        <circle id="Ellipse_9" cx="25" cy="25" r="25" class="cls-1" data-name="Ellipse 9" transform="translate(564 818)"/>
        <g id="_020-dental" data-name="020-dental" transform="translate(588 836.621)">
            <path id="Path_193" d="M6.247 186.895a6.25 6.25 0 0 1-4.421-10.665l.922-.922a5.431 5.431 0 0 1 7.681 0l2.193 2.193 11.525-6.861.674 1.132-12.406 7.385L9.5 176.24a4.113 4.113 0 0 0-5.817 0l-.922.922a4.929 4.929 0 0 0 6.177 7.615l10.4-6.794.721 1.1-10.4 6.794a6.215 6.215 0 0 1-3.408 1.015zm0 0" data-name="Path 193" transform="translate(0 -156.501)"/>
            <path id="Path_194" d="M325.424 63.482l-.721-1.1 7.914-5.169a16.19 16.19 0 0 0 4.849-4.947l-8.331 4.959-.673-1.133 10.349-6.16v2.66l-.1.158a17.512 17.512 0 0 1-5.378 5.566zm0 0" data-name="Path 194" transform="translate(-297.811 -45.817)"/>
            <path id="Path_195" d="M153.394 28.331L170.2 0h-2.66l-.158.1a17.541 17.541 0 0 0-5.566 5.4l-16.8 25.816A6.271 6.271 0 0 0 150.234 41h.023a6.181 6.181 0 0 0 4.408-1.832l.922-.926a5.465 5.465 0 0 0 0-7.709zm-2.8 9.362a3.306 3.306 0 1 1 3.294-3.306 3.3 3.3 0 0 1-3.299 3.307zm0 0" class="cls-2" data-name="Path 195" transform="translate(-131.991)"/>
            <path id="Path_196" d="M35.953 247.906a3.953 3.953 0 1 1 3.953-3.953 3.957 3.957 0 0 1-3.953 3.953zm0-6.589a2.635 2.635 0 1 0 2.635 2.635 2.638 2.638 0 0 0-2.635-2.634zm0 0" data-name="Path 196" transform="translate(-29.365 -220.144)"/>
            <path id="Path_197" d="M179.953 375.906a3.953 3.953 0 1 1 3.953-3.953 3.957 3.957 0 0 1-3.953 3.953zm0-6.589a2.635 2.635 0 1 0 2.635 2.635 2.638 2.638 0 0 0-2.635-2.634zm0 0" data-name="Path 197" transform="translate(-161.439 -337.542)"/>
        </g>
    </g>
</svg>
