<svg xmlns="http://www.w3.org/2000/svg" width="58.331" height="61.188" viewBox="0 0 58.331 61.188">
    <defs>
        <style>
            .cls-1{fill:#fff}.cls-2{fill:#f7d82f}
        </style>
    </defs>
    <g id="Group_86" data-name="Group 86" transform="translate(-564 -818)">
        <circle id="Ellipse_9" cx="25" cy="25" r="25" class="cls-1" data-name="Ellipse 9" transform="translate(564 818)"/>
        <g id="_011-rasp" data-name="011-rasp" transform="translate(532.696 838.188)">
            <path id="Path_111" d="M84.631 0h-2.646A1.987 1.987 0 0 0 80 1.985v22.494h1.323v-3.308h3.97v3.308h1.323V1.985A1.987 1.987 0 0 0 84.631 0zm-2.425 5.954l-.883.662V5.293zm-.442-1.984h3.088l-1.544 1.157zm1.544 2.812l1.544 1.158-1.544 1.16-1.544-1.161zm-1.1 3.143l-.883.662V9.262zm1.1.827l1.544 1.158-1.544 1.158-1.544-1.158zm-1.1 3.143l-.883.662v-1.325zm1.1.827l1.544 1.158-1.544 1.158-1.544-1.158zm-1.1 3.143l-.883.662V17.2zm1.1.827l1.544 1.158h-3.088zm1.1-.827l.883-.662v1.323zm0-3.97l.883-.662v1.323zm0-3.97l.883-.662v1.323zm0-3.97l.883-.662v1.323zm-2.423-4.632h2.646a.662.662 0 0 1 .662.662v.662h-3.97v-.662a.662.662 0 0 1 .662-.662z" data-name="Path 111" transform="translate(-15.315)"/>
            <path id="Path_112" d="M341.293 200v3.308h-3.97V200H336v18.208a3.312 3.312 0 0 0 .8 2.152l3.062 3.572a1.568 1.568 0 0 0 2.758-1.021V200zm-3.087 6.616l-.883.662v-1.323zm-.442-1.985h3.088l-1.544 1.158zm1.544 2.812l1.544 1.158-1.544 1.158-1.544-1.158zm-1.1 3.143l-.883.662v-1.323zm1.1.827l1.544 1.158-1.544 1.158-1.544-1.158zm-1.1 3.143l-.883.662v-1.323zm1.1.827l1.544 1.158h-3.088zm1.1-.827l.883-.662v1.323zm0-3.97l.883-.662v1.323zm0-3.97l.883-.662v1.323zm.452 16.455l-3.06-3.571a1.991 1.991 0 0 1-.478-1.291v-.345h3.97v5.048a.254.254 0 0 1-.43.159z" data-name="Path 112" transform="translate(-254.362 -183.479)"/>
            <g id="Group_80" data-name="Group 80" transform="translate(63.304)">
                <path id="Path_113" d="M67.993 305.2a3.558 3.558 0 0 1-3.525-3.244L63.3 288h9.378l-1.164 13.958a3.558 3.558 0 0 1-3.521 3.242z" class="cls-2" data-name="Path 113" transform="translate(-63.304 -264.202)"/>
                <path id="Path_114" d="M328.682 17.2H319.3l1.164-13.958a3.537 3.537 0 0 1 7.05 0z" class="cls-2" data-name="Path 114" transform="translate(-302.35)"/>
            </g>
        </g>
    </g>
</svg>
